<?xml version="1.0" encoding="UTF-8"?>
<!DOCTYPE svg PUBLIC "-//W3C//DTD SVG 1.1//EN" "http://www.w3.org/Graphics/SVG/1.1/DTD/svg11.dtd">
<!-- Creator: CorelDRAW 2020 (64-Bit) -->
<svg xmlns="http://www.w3.org/2000/svg" xml:space="preserve" width="17.4313mm" height="17.4313mm" version="1.1" style="shape-rendering:geometricPrecision; text-rendering:geometricPrecision; image-rendering:optimizeQuality; fill-rule:evenodd; clip-rule:evenodd"
viewBox="0 0 136.46 136.46"
 xmlns:xlink="http://www.w3.org/1999/xlink"
 xmlns:xodm="http://www.corel.com/coreldraw/odm/2003">
 <defs>
  <style type="text/css">
   <![CDATA[
    .fil0 {fill:#00A0E3}
    .fil1 {fill:#9D9E9E}
   ]]>
  </style>
 </defs>
 <g id="Layer_x0020_1">
  <metadata id="CorelCorpID_0Corel-Layer"/>
  <g id="_1921741986816">
   <path class="fil0" d="M120.55 68.23c0,-28.9 -23.43,-52.33 -52.33,-52.33 -28.9,0 -52.33,23.43 -52.33,52.33 0,28.9 23.43,52.33 52.33,52.33 28.9,0 52.33,-23.43 52.33,-52.33zm-22.34 -18.75l-25 3.68 -9.79 0 -25.14 -3.62c-0.98,-0.13 -1.98,0.14 -2.73,0.79 -2.4,2.05 -1.38,5.96 1.61,6.83l22.87 7.07 -0.03 11.11 -10.9 27.53 -0.02 0.04c-1.93,5.15 4.43,8.23 8.6,6.11 1.17,-0.59 2.06,-1.54 2.6,-2.73l8.02 -18.88 8.16 18.92c1.9,4.4 8.63,4.54 10.71,0.32 0.57,-1.16 0.61,-2.46 0.17,-3.67l0 -0 -10.88 -27.67 0.1 -11.08 22.72 -7.05c4.42,-1.32 3.71,-8.11 -0.99,-7.72l-0.06 0.01zm-29.97 -22.76c-5.82,0 -10.54,4.72 -10.54,10.54 0,5.82 4.72,10.54 10.54,10.54 5.82,0 10.54,-4.72 10.54,-10.54 0,-5.82 -4.72,-10.54 -10.54,-10.54z"/>
   <path class="fil1" d="M68.23 0c37.68,0 68.23,30.55 68.23,68.23 0,37.68 -30.55,68.23 -68.23,68.23 -37.68,0 -68.23,-30.55 -68.23,-68.23 0,-37.68 30.55,-68.23 68.23,-68.23zm0 6.11c34.31,0 62.12,27.81 62.12,62.12 0,34.31 -27.81,62.12 -62.12,62.12 -34.31,0 -62.12,-27.81 -62.12,-62.12 0,-34.31 27.81,-62.12 62.12,-62.12z"/>
  </g>
 </g>
</svg>
