<?xml version="1.0" encoding="UTF-8"?>
<!DOCTYPE svg PUBLIC "-//W3C//DTD SVG 1.1//EN" "http://www.w3.org/Graphics/SVG/1.1/DTD/svg11.dtd">
<!-- Creator: CorelDRAW 2020 (64-Bit) -->
<svg xmlns="http://www.w3.org/2000/svg" xml:space="preserve" width="71.7088mm" height="14.7273mm" version="1.1" style="shape-rendering:geometricPrecision; text-rendering:geometricPrecision; image-rendering:optimizeQuality; fill-rule:evenodd; clip-rule:evenodd"
viewBox="0 0 4768.36 979.31"
 xmlns:xlink="http://www.w3.org/1999/xlink"
 xmlns:xodm="http://www.corel.com/coreldraw/odm/2003">
 <defs>
  <style type="text/css">
   <![CDATA[
    .str0 {stroke:#10498A;stroke-width:104.44;stroke-linecap:round;stroke-miterlimit:22.9256;stroke-opacity:0.709804}
    .str1 {stroke:#0082C9;stroke-width:104.44;stroke-linecap:round;stroke-miterlimit:22.9256;stroke-opacity:0.721569}
    .str2 {stroke:#0082C9;stroke-width:107.36;stroke-linecap:round;stroke-miterlimit:22.9256;stroke-opacity:0.800000}
    .str3 {stroke:#E31E24;stroke-width:107.36;stroke-linecap:round;stroke-miterlimit:22.9256;stroke-opacity:0.800000}
    .fil0 {fill:none}
    .fil1 {fill:none}
    .fil2 {fill:none}
    .fil5 {fill:#898989;fill-rule:nonzero}
    .fil8 {fill:#C02222;fill-opacity:0.800000}
    .fil7 {fill:#0082C9;fill-opacity:0.858824}
    .fil6 {fill:#C02222;fill-opacity:0.858824}
    .fil4 {fill:#C02222}
    .fil3 {fill:#10498A;fill-rule:nonzero}
   ]]>
  </style>
 </defs>
 <g id="Layer_x0020_1">
  <metadata id="CorelCorpID_0Corel-Layer"/>
  <g id="_1921719256960">
   <path class="fil0 str0" d="M642.71 904.36c-94.68,31.77 -197.37,30.2 -291.03,-4.48 -226.53,-83.87 -342.18,-335.49 -258.32,-562.03 83.86,-226.53 335.49,-342.18 562.03,-258.32"/>
   <path class="fil1 str1" d="M666.62 83.88c205.39,82.54 316.73,305.5 259.32,519.28"/>
   <path class="fil2 str2" d="M560.97 698.85c-45.69,13.59 -94.54,11.98 -139.24,-4.56 -114.07,-42.24 -172.31,-168.95 -130.08,-283.02 1.79,-4.83 3.75,-9.6 5.87,-14.3"/>
   <path class="fil2 str3" d="M305.14 381.73c52.53,-95.66 167.18,-138.43 269.53,-100.54 107.57,39.82 166.57,155.55 135.61,266"/>
   <g>
    <path class="fil3" d="M466.92 538.2c-27.19,-11.8 -39.69,-43.34 -27.92,-70.43 11.78,-27.08 43.38,-39.47 70.57,-27.67l-42.65 98.1zm419.9 182.34l-419.9 -182.34 42.65 -98.1 419.9 182.34 -42.65 98.1zm42.65 -98.1c27.19,11.8 39.69,43.34 27.92,70.43 -11.78,27.08 -43.38,39.47 -70.57,27.67l42.65 -98.1z"/>
   </g>
   <path class="fil4" d="M930.35 570.97c48.94,18.12 73.93,72.48 55.81,121.42 -18.12,48.94 -72.48,73.92 -121.42,55.81 -48.94,-18.12 -73.92,-72.48 -55.81,-121.42 18.12,-48.94 72.48,-73.93 121.42,-55.81z"/>
   <path class="fil5" d="M1654.03 351.45c0,47.2 -16.05,83.97 -48.25,110.32 -32.09,26.47 -68.4,39.59 -108.91,39.59 -13.7,0 -27.52,-1.52 -41.46,-4.8 -2.11,-6.09 -6.09,-14.41 -12.06,-24.71l7.14 -7.5c9.72,3.17 18.51,4.81 26.47,4.81 23.07,0 41.69,-8.2 55.63,-24.48 13.94,-16.4 20.85,-39.35 20.85,-68.87 0,-63.82 -28.69,-95.68 -86.08,-95.68 -6.91,0 -20.61,1.29 -41.11,4.1 -2.11,5.5 -3.16,42.86 -3.16,112.19l0 181.53c0,54.46 1.52,89.83 4.45,106.34 1.17,6.68 5.03,10.89 11.71,12.65 1.99,0.47 17.69,1.64 46.97,3.51l3.74 3.74 0 22.61 -3.39 3.51c-31.27,-1.4 -68.86,-2.11 -112.55,-2.11 -49.19,0 -84.44,0.7 -105.64,2.11l-3.4 -3.17 0 -22.95 3.75 -3.74c23.07,-1.4 36.31,-2.58 39.82,-3.51 6.56,-1.76 10.42,-5.98 11.6,-12.65 3.04,-16.51 4.45,-51.88 4.45,-106.34l0 -181.53c0,-54.45 -1.41,-89.94 -4.45,-106.34 -1.18,-6.68 -5.04,-10.89 -11.6,-12.76 -3.51,-0.82 -16.86,-1.99 -40.17,-3.4l-3.4 -3.75 0 -22.6 3.75 -3.51c22.37,1.4 56.8,2.11 103.3,2.11 19.2,0 46.85,-0.35 83.03,-1.06 36.07,-0.7 56.92,-1.05 62.42,-1.05 62.66,0 103.41,15.93 122.15,47.66 9.6,16.51 14.4,36.42 14.4,59.73zm570.94 123.2c0,84.44 -24.6,150.61 -73.78,198.63 -47.78,46.73 -113.13,70.03 -195.93,70.03 -78.23,0 -139.6,-22.02 -184.22,-66.05 -44.63,-44.04 -66.99,-105.29 -66.99,-183.76 0,-109.97 42.05,-186.22 126.02,-228.49 38.18,-19.2 85.14,-28.81 141.01,-28.81 79.76,0 141.94,20.85 186.33,62.77 44.97,42.51 67.57,101.07 67.57,175.67zm-105.76 17.8c0,-66.28 -13.23,-118.99 -39.94,-157.99 -26.7,-39 -65.7,-58.44 -117.11,-58.44 -68.05,0 -113.02,30.45 -135.27,91.59 -11.36,31.27 -17.1,66.4 -17.1,105.28 0,70.74 13,126.48 39.12,167.48 26.94,42.28 67.34,63.48 121.1,63.48 65.23,0 109.03,-32.09 131.4,-96.39 11.94,-34.09 17.8,-72.38 17.8,-115.01zm629.61 234.35l-3.4 3.51c-1.64,0 -5.97,-0.12 -13,-0.35 -31.39,-1.17 -50.95,-1.76 -58.68,-1.76 -11.71,0 -30.22,0.7 -55.63,2.11 -0.94,-5.51 -5.27,-14.64 -13,-27.52l-85.14 -142.06 -38.06 -57.97c-4.8,-7.02 -11.6,-14.05 -20.26,-20.96l3.75 -11.6c5.27,0.23 9.13,0.35 11.71,0.35 22.37,0 40.05,-3.63 52.82,-10.66 11.71,-6.44 22.49,-17.57 32.32,-33.61 9.72,-16.04 14.64,-35.13 14.64,-57.27 0,-38.65 -14.41,-64.77 -43.22,-78.23 -13.7,-6.44 -33.73,-9.6 -59.97,-9.6 -11.48,0 -22.48,0.82 -33.02,2.69 -2.23,22.37 -3.4,60.66 -3.4,114.65l0 179.42c0,54.46 1.52,89.83 4.45,106.34 1.17,6.68 5.03,10.89 11.71,12.65 3.4,0.93 16.75,2.11 40.17,3.51l3.4 3.4 0 22.95 -3.05 3.51c-22.95,-1.4 -58.2,-2.11 -105.76,-2.11 -49.19,0 -84.44,0.7 -105.64,2.11l-3.4 -3.17 0 -23.3 3.4 -3.4c23.31,-1.4 36.66,-2.58 40.17,-3.51 6.56,-1.76 10.42,-5.98 11.6,-12.65 3.04,-16.51 4.45,-51.88 4.45,-106.34l0 -181.53c0,-54.45 -1.41,-89.94 -4.45,-106.34 -1.18,-6.68 -5.04,-10.89 -11.6,-12.76 -3.51,-0.82 -16.86,-1.99 -40.17,-3.4l-3.4 -3.4 0 -23.31 3.4 -3.16c22.37,1.4 57.62,2.11 105.64,2.11 27.88,0 50.6,-0.35 67.93,-1.06 34.55,-1.4 60.43,-2.11 77.53,-2.11 39.59,0 68.63,3.63 87.13,10.66 24.95,9.6 41.69,25.88 50.12,48.72 4.1,11.24 6.21,24.48 6.21,39.82 0,62.19 -35.02,106.34 -104.94,132.45 11.36,19.21 23.54,38.65 36.31,58.32l52.82 81.28c31.15,48.02 51.88,75.43 62.07,82.1 5.27,3.4 12.65,5.04 22.02,5.04l3.4 3.51 0 21.9zm409.67 -113.25c-5.03,33.49 -7.49,71.2 -7.49,113.25l-3.52 3.51 -249.33 -2.11c-41.69,0 -71.09,0.7 -88.19,2.11l-3.52 -3.51 0 -9.61 1.76 -4.1c16.87,-10.77 26.12,-17.45 27.41,-20.26 2.11,-4.34 3.39,-19.56 3.86,-45.56l0.94 -76.94 0 -173.92c0,-54.45 -1.41,-89.94 -4.45,-106.34 -1.18,-6.68 -5.04,-10.89 -11.6,-12.76 -3.51,-0.82 -16.86,-1.99 -40.17,-3.4l-3.4 -3.4 0 -23.31 3.4 -3.16c23.07,1.4 58.79,2.11 107.05,2.11 42.98,0 124.73,-0.7 245.35,-2.11l3.75 2.81 -4.45 38.06c-1.41,12.06 -2.46,22.37 -3.17,30.8l-2.34 31.98 -3.4 3.74 -19.91 0 -3.51 -3.4c-0.24,-31.15 -1.99,-48.83 -5.51,-53.17 -2.46,-3.28 -14.76,-5.74 -36.77,-7.61 -22.14,-1.76 -41.46,-2.7 -58.21,-2.7 -19.91,0 -40.05,0.82 -60.43,2.35 -2.45,24.01 -3.74,57.39 -3.74,99.9l0 70.97c18.03,1.17 32.68,1.76 43.91,1.76l44.98 -0.35c21.08,-0.23 32.91,-1.87 35.72,-5.15 3.63,-4.1 5.98,-19.56 7.15,-46.26l3.39 -3.52 21.32 0 3.4 3.52c-0.82,25.53 -1.29,49.07 -1.29,70.27 0,23.19 0.47,48.37 1.29,75.89l-3.4 3.05 -22.95 0 -3.52 -3.4c0,-26.35 -1.76,-41.93 -5.39,-46.85 -3.74,-4.92 -14.76,-8.2 -33.37,-9.83 -13.94,-1.06 -28.81,-1.64 -44.51,-1.64 -16.74,0 -32.32,0.59 -46.73,1.64l0 104.7c0,29.98 0.59,59.03 1.76,87.14l46.61 0c66.87,0 107.74,-2.58 122.85,-7.85 2.57,-0.94 4.34,-2.23 5.51,-3.87 2.22,-3.16 4.45,-9.95 6.56,-20.49l8.2 -42.63 3.4 -3.74 20.96 0 3.75 3.4zm465.65 -4.46c-4.8,41.69 -8.43,81.05 -11.01,118.05l-3.4 3.17c-94.05,-1.88 -165.37,-2.81 -214.09,-2.81 -35.72,0 -98.96,0.94 -189.73,2.81l-3.51 -3.17 0 -24.01c16.98,-21.31 42.86,-56.57 77.65,-105.99l50.01 -71.44 64.18 -94.28c21.32,-31.15 53.05,-79.28 95.34,-144.52l-86.09 0.35c-66.52,0.23 -104.82,1.87 -114.89,4.8 -5.97,1.64 -10.07,6.2 -12.41,13.82 -0.94,2.93 -2.81,13.59 -5.86,31.85l-2.69 17.1 -3.74 3.51 -20.97 0 -3.4 -4.1c1.52,-24.24 2.34,-46.14 2.34,-65.59 0,-6.21 -0.23,-19.91 -0.7,-41.11l3.51 -3.51c31.03,1.4 100.37,2.11 207.88,2.11 25.41,0 80.69,-0.7 165.72,-2.11l3.4 3.51 0 20.49 -28.11 39.47c-29.51,40.76 -54.93,76.6 -76.12,107.75l-101.54 148.97c-11.48,16.63 -38.18,57.62 -79.99,122.73 12.18,0.47 30.57,0.7 55.28,0.7 115.94,0 177.66,-3.16 185.28,-9.6 4.1,-3.4 9.37,-20.97 15.69,-52.82 1.4,-6.68 2.69,-12.06 3.86,-16.52l3.75 -3.39 20.61 0 3.75 3.74zm591.9 -338.58l-3.86 3.4c-23.31,1.4 -36.66,2.57 -40.05,3.4 -6.68,1.87 -10.54,6.08 -11.72,12.76 -2.93,16.4 -4.45,51.89 -4.45,106.34l0 139.25c0,102.71 1.52,169.7 4.45,200.74l-4.45 3.16c-25.88,-4.33 -45.44,-7.49 -58.68,-9.25 -61.25,-68.86 -165.95,-194.53 -313.98,-376.76l0 224.39c0,54.46 1.52,89.83 4.45,106.34 1.17,6.68 5.03,10.89 11.71,12.65 3.4,0.93 16.86,2.11 40.17,3.51l3.4 3.4 0 23.3 -3.4 3.17c-26.35,-1.4 -50.83,-2.11 -73.43,-2.11 -26.35,0 -52.7,0.7 -79.28,2.11l-3.4 -3.17 0 -23.3 3.4 -3.4c23.31,-1.4 36.77,-2.58 40.17,-3.51 6.68,-1.76 10.54,-5.98 11.59,-12.65 3.05,-16.51 4.57,-51.88 4.57,-106.34l0 -181.53c0,-54.45 -1.52,-89.94 -4.57,-106.34 -1.05,-6.68 -4.91,-10.89 -11.59,-12.76 -3.4,-0.82 -16.86,-1.99 -40.17,-3.4l-3.4 -3.4 0 -23.31 3.4 -3.16c21.78,1.4 42.39,2.11 62.07,2.11 30.92,0 56.57,-0.7 76.95,-2.11 82.33,109.85 179.07,227.55 290.21,353.1l0 -200.74c0,-54.45 -1.52,-89.94 -4.45,-106.34 -1.17,-6.68 -5.04,-10.89 -11.6,-12.76 -3.51,-0.82 -16.86,-1.99 -40.17,-3.4l-3.51 -3.4 0 -23.31 3.51 -3.16c25.53,1.4 49.89,2.11 73.08,2.11 29.51,0 55.98,-0.7 79.52,-2.11l3.51 3.16 0 23.31zm552.32 456.28l-3.05 3.51c-50.83,-1.4 -81.4,-2.11 -91.94,-2.11 -42.05,0 -81.16,0.7 -117.35,2.11l-3.04 -3.51 0 -21.55 3.39 -3.86 29.86 -1.64c12.53,-0.7 18.86,-5.15 18.86,-13.35 0,-4.8 -3.17,-15.57 -9.6,-32.32l-27.76 -72.37c-31.63,-0.47 -63.83,-0.7 -96.86,-0.7 -17.8,0 -44.27,0.24 -79.52,0.7l-15.11 41.81c-11.48,31.85 -17.22,51.76 -17.22,59.73 0,8.66 5.39,13.82 16.17,15.46 5.97,0.94 17.57,1.87 35.02,2.69l3.4 3.51 0 21.9 -3.4 3.51c-42.28,-1.4 -69.57,-2.11 -81.63,-2.11 -9.37,0 -32.68,0.7 -69.68,2.11l-3.4 -3.17 0 -22.25 3.75 -3.51c23.54,-1.29 38.06,-5.97 43.33,-14.06 5.39,-7.96 25.65,-55.63 60.67,-142.99l89.47 -224.05c6.68,-17.45 16.75,-43.57 30.22,-78.59l48.72 0 181.88 427.82c7.03,16.28 13.47,25.41 19.2,27.41 7.5,2.81 18.39,4.22 32.56,4.22l3.05 3.74 0 21.9zm-217.49 -184.57l-73.43 -179.77 -70.27 179.77c18.74,0.7 43.1,1.05 73.08,1.05 29.05,0 52.59,-0.35 70.62,-1.05z"/>
   <path class="fil0 str0" d="M641.46 904.77c-94.34,31.35 -196.56,29.62 -289.78,-4.89 -213.02,-78.86 -330.21,-307.67 -269.74,-526.62"/>
   <path class="fil6" d="M135.17 222.22c51.95,19.24 78.48,76.95 59.25,128.9 -19.24,51.95 -76.95,78.48 -128.9,59.25 -51.96,-19.24 -78.49,-76.95 -59.25,-128.9 19.24,-51.96 76.95,-78.49 128.9,-59.25z"/>
   <path class="fil7" d="M123.03 255.02c33.85,12.53 51.12,50.12 38.59,83.96 -12.53,33.84 -50.12,51.12 -83.96,38.59 -33.85,-12.53 -51.12,-50.12 -38.59,-83.96 12.53,-33.85 50.12,-51.12 83.96,-38.59z"/>
   <path class="fil8" d="M935.65 570.08c26.94,9.97 40.7,39.9 30.72,66.84 -9.97,26.94 -39.9,40.69 -66.84,30.71 -26.94,-9.97 -40.69,-39.9 -30.71,-66.84 9.97,-26.94 39.89,-40.69 66.83,-30.71z"/>
  </g>
 </g>
</svg>
