<?xml version="1.0" encoding="UTF-8"?>
<!DOCTYPE svg PUBLIC "-//W3C//DTD SVG 1.1//EN" "http://www.w3.org/Graphics/SVG/1.1/DTD/svg11.dtd">
<!-- Creator: CorelDRAW 2020 (64-Bit) -->
<svg xmlns="http://www.w3.org/2000/svg" xml:space="preserve" width="67.3325mm" height="19.3717mm" version="1.1" style="shape-rendering:geometricPrecision; text-rendering:geometricPrecision; image-rendering:optimizeQuality; fill-rule:evenodd; clip-rule:evenodd"
viewBox="0 0 53673.17 15441.88"
 xmlns:xlink="http://www.w3.org/1999/xlink"
 xmlns:xodm="http://www.corel.com/coreldraw/odm/2003">
 <defs>
  <style type="text/css">
   <![CDATA[
    .fil1 {fill:#208691}
    .fil3 {fill:#394644}
    .fil0 {fill:#444545}
    .fil4 {fill:#D5212D}
    .fil2 {fill:white}
    .fil5 {fill:#898989;fill-rule:nonzero}
   ]]>
  </style>
 </defs>
 <g id="Layer_x0020_1">
  <metadata id="CorelCorpID_0Corel-Layer"/>
  <g id="_1921731893776">
   <path class="fil0" d="M5805.62 9670.7c12.04,-149.3 -159.75,-49.74 86.73,-121.24 -333.2,18.49 -550.82,-317.1 -757.12,-537.11 -262.58,-279.4 -329.22,-352.49 -641.54,-609.41 -307.46,159.83 -357.28,410.29 -732.25,569.23l-1167.33 -1236.44 5136.03 -5154.44 1229.98 1226c303.47,-128.5 504.99,-409.49 702.52,-634.28 212.84,-241.69 435.16,-399.84 609.41,-614.19 -126.03,-195.94 -2351.63,-2430.39 -2548.36,-2558.81 -574.89,385.34 -1407.42,1373.7 -1968.69,1901.25 -662.34,623.04 -1288.65,1282.19 -1937.36,1928.51l-2897.59 2945.74c-319.49,325.15 -700.92,585.34 -920.05,960.23l7723.69 7706.15c416.74,-263.37 856.68,-867.92 1251.66,-1177.05 -142.05,-277 -3482.85,-3640.28 -3808,-3878.71 130.81,-337.27 330.73,-519.49 638.27,-715.43z"/>
   <path class="fil1" d="M10254.44 5094.26l0 88.32c398.97,161.42 2537.84,2464.11 2583.6,2553.15l-2375.7 2408.71c-179.04,199.92 -602.16,628.62 -846.24,730.58 -227.98,-203.11 -479.32,-417.46 -690.48,-636.67l-1220.42 -1249.27c-212.68,-212.76 -581.27,-373.38 -578.08,-745.08l-71.42 38.58c-114.79,329.14 -386.21,486.49 -586.85,666.41 -228.06,203.03 -346.91,371.7 -576.49,600.48 -246.47,71.5 -74.69,-28.06 -86.73,121.24l3782.41 3815.33c345.16,-117.26 1250.07,-1115.19 1551.94,-1429.19 446.4,-464.81 953.06,-940.94 1446.01,-1432.29l2847.05 -2888.82c-263.37,-429.5 -3289.46,-3317.52 -3901.26,-3938.09 -113.99,354.09 -368.52,482.51 -615.79,711.36 -265.77,244.88 -330.81,449.58 -661.54,585.26z"/>
   <path class="fil2" d="M7127.11 8243.98c-3.19,371.7 365.41,532.33 578.08,745.08l1220.42 1249.27c211.16,219.21 462.5,433.56 690.48,636.67 244.08,-101.95 667.2,-530.65 846.24,-730.58l2375.7 -2408.71c-45.76,-89.04 -2184.63,-2391.73 -2583.6,-2553.15 -483.38,549.23 -1039.78,1014.04 -1546.36,1562.39 -275.41,297.09 -505.07,468.16 -785.26,778.8 -205.5,228.06 -532.33,574.89 -795.7,720.21z"/>
   <path class="fil2" d="M4493.7 8402.93c150.1,-275.33 1075.1,-1178.65 1330.42,-1336.8 89.92,-165.33 570.83,-651.9 785.98,-855.01l2354.1 -2363.75 -4.07 -40.1 -1229.98 -1226 -5136.03 5154.44 1167.33 1236.44c374.97,-158.95 424.79,-409.41 732.25,-569.23z"/>
   <path class="fil3" d="M5824.12 7066.13c187.81,318.77 965.01,1103.16 1231.58,1216.43l71.42 -38.58c263.37,-145.32 590.2,-492.15 795.7,-720.21 280.19,-310.64 509.85,-481.71 785.26,-778.8 506.58,-548.35 1062.98,-1013.16 1546.36,-1562.39l0 -88.32c-213.63,-253.65 -1092,-1124.84 -1290.24,-1246.88l-2354.1 2363.75c-215.15,203.11 -696.06,689.68 -785.98,855.01z"/>
   <path class="fil4" d="M8960.13 3807.28l4.07 40.1c198.25,122.04 1076.61,993.23 1290.24,1246.88 330.73,-135.67 395.78,-340.38 661.54,-585.26 247.27,-228.86 501.8,-357.28 615.79,-711.36 -198.33,-254.53 -1026.87,-1092.71 -1259.71,-1238.83 -174.25,214.35 -396.58,372.5 -609.41,614.19 -197.53,224.79 -399.05,505.78 -702.52,634.28z"/>
   <path class="fil4" d="M4493.7 8402.93c312.32,256.92 378.96,330.01 641.54,609.41 206.3,220.01 423.92,555.6 757.12,537.11 229.58,-228.78 348.43,-397.45 576.49,-600.48 200.64,-179.91 472.06,-337.27 586.85,-666.41 -266.56,-113.27 -1043.77,-897.66 -1231.58,-1216.43 -255.32,158.15 -1180.32,1061.47 -1330.42,1336.8z"/>
   <path class="fil5" d="M20928.57 9302.74c0,325.39 -123.56,568.92 -370.75,730.5 -247.11,161.58 -579.12,242.01 -995.86,242.01 -52.69,0 -98.77,-1.43 -137.51,-4.38 0,311.52 11.72,687.37 34.36,1128.98l-410.92 0c21.2,-405.82 32.2,-894.23 32.2,-1465.3 0,-491.43 -11,-932.33 -32.2,-1324.2l306.42 0c32.84,0 126.51,-1.51 281.47,-5.9 155.04,-4.38 286.65,-6.54 395.62,-6.54 274.21,0 492.07,62.1 654.37,187.17 161.66,125.07 242.81,297.57 242.81,517.66zm-357.6 124.35c0,-367.08 -250.78,-550.58 -752.42,-550.58 -122.04,0 -260.26,10.2 -413.08,32.12 10.2,232.52 15.31,595.22 15.31,1088.01 49.74,2.95 111.2,4.38 184.3,4.38 643.45,0 965.89,-191.55 965.89,-573.94zm3330.59 535.2c0,461.38 -134.48,829.9 -405.02,1106.35 -269.83,276.37 -582.07,414.59 -936,414.59 -339.98,0 -637.55,-126.51 -894.23,-380.23 -256.68,-253.01 -384.62,-595.94 -384.62,-1027.35 0,-466.48 135.27,-837.23 405.1,-1110.73 269.83,-273.42 581.99,-410.13 935.92,-410.13 339.98,0 638.35,127.22 894.23,380.15 256.68,253.73 384.62,595.94 384.62,1027.35zm-380.95 49.74c0,-368.52 -97.25,-654.45 -290.24,-856.2 -193.78,-201.83 -416.82,-302.75 -669.83,-302.75 -233.96,0 -442.33,106.02 -625.11,318.77 -182.86,212.84 -274.21,497.25 -274.21,852.62 0,369.95 97.25,655.88 291.75,857.72 195.22,202.55 418.26,303.39 669.75,303.39 233.96,0 442.41,-107.45 624.48,-323.16 182.07,-215.71 273.42,-499.41 273.42,-850.38zm3108.43 1387.81l-413.87 0c-136.79,-410.21 -236.91,-681.47 -299.8,-813.8 -80.43,-167.48 -171.15,-274.93 -271.98,-323.96 -80.43,-38.02 -223.76,-57.79 -430.69,-57.79 -121.4,0 -229.65,1.51 -323.24,4.38 0,461.46 8.05,858.44 25.59,1191.16l-398.49 0c21.2,-443.13 32.2,-930.82 32.2,-1465.3 0,-502.36 -11,-943.97 -32.2,-1324.2l302.03 0c64.33,0 145.48,-1.51 244.16,-5.9 98.77,-4.38 211.32,-6.54 338.54,-6.54 625.19,0 938.15,215.71 938.15,647.12 0,358.23 -175.45,610.53 -527.23,756l0 21.2c157.27,47.59 284.5,156.48 381.75,327.62 81.15,143.33 225.91,492.79 435.08,1049.99zm-655.88 -2009.34c0,-339.98 -229.65,-509.61 -689.52,-509.61 -164.53,0 -302.03,8.77 -413.87,27.74 10.2,248.63 15.31,586.45 15.31,1012.76 85.61,2.87 167.48,4.38 246.47,4.38 560.79,0 841.62,-178.48 841.62,-535.28zm2939.36 1686.18l-13.15 323.16 -1726.36 0c19.77,-443.13 29.97,-930.82 29.97,-1465.3 0,-502.36 -10.2,-943.97 -29.97,-1324.2l1619.62 0 -17.54 319.49c-392.67,-16.82 -808.69,-25.59 -1248.87,-25.59 8.77,221.52 13.15,520.61 13.15,897.18 379.52,0 718.06,-8.05 1014.91,-25.59l0 319.57c-316.62,-13.15 -655.17,-19.77 -1014.91,-19.77 0,367.08 6.54,711.44 18.97,1033.17 474.54,0 925.71,-10.92 1354.17,-32.12zm2203.92 -34.44l-12.44 357.6 -1838.28 0 19.05 -257.4c180.55,-250.78 442.33,-658.04 786.77,-1221.05 369.95,-606.94 554.25,-944.77 554.25,-1012.76l0 -24.15c-312.24,0 -756.08,18.33 -1330.1,54.13l11 -328.26 1747.56 0 -16.82 266.16c-163.09,229.58 -413.87,633.17 -751.7,1210.13 -353.13,599.53 -529.38,930.02 -529.38,990.04l0 23.36c295.42,0 748.75,-19.77 1360.07,-57.79zm2765.42 357.6l-299.8 0c0,-24.15 -234.04,-366.36 -702.68,-1025.83 -489.92,-693.19 -769.24,-1129.78 -837.23,-1311.05l-21.92 0c25.59,343.65 38.74,639.06 38.74,884.74 0,479.64 10.92,963.74 32.12,1452.14l-359.75 0c24.15,-464.33 36.59,-952.74 36.59,-1465.3 0,-503.79 -12.44,-945.48 -36.59,-1324.2l410.92 0c0,40.18 215.71,365.57 647.12,976.89 451.18,642.65 708.57,1061.71 771.47,1255.41l21.2 0c-24.15,-348.03 -36.59,-644.17 -36.59,-886.89 0,-527.94 -9.49,-976.89 -29.97,-1345.41l366.36 0c-24.15,378.72 -36.59,820.41 -36.59,1324.2 0,512.56 12.44,1000.96 36.59,1465.3zm3082.69 0l-451.82 0c0,-95.82 -90,-396.34 -269.83,-901.56l-1236.44 0c-176.96,497.97 -265.45,798.49 -265.45,901.56l-432.84 0c0,-52.61 184.22,-509.61 552.73,-1370.28 368.52,-859.87 552.81,-1332.97 552.81,-1419.22l497.17 0c0,84.82 175.53,550.58 526.51,1399.45 351.7,848.23 527.15,1311.85 527.15,1390.05zm-820.33 -1182.31c-335.67,-838.75 -503.87,-1284.03 -503.87,-1336.64l-23.36 0c0,43.84 -173.3,489.84 -520.61,1336.64l1047.84 0zm4433.99 -1607.19c-5.1,270.55 -9.49,522.04 -12.44,756.8 -2.95,233.96 -4.38,452.61 -4.38,655.09 0,957.2 -378.08,1435.4 -1133.37,1435.4 -196.73,0 -365.65,-27.82 -506.74,-84.82 -140.38,-56.36 -255.88,-142.61 -346.59,-258.91 -90.63,-116.22 -157.2,-263.21 -199.6,-440.18 -41.69,-176.88 -62.89,-386.77 -62.89,-628.06 0,-211.32 -1.43,-435.79 -4.38,-673.42 -2.95,-237.63 -7.33,-491.35 -13.15,-761.9l407.26 0c-16.82,544.68 -25.59,970.99 -25.59,1279.56 0,247.91 11.72,450.46 36.59,606.94 24.15,156.48 67.28,286.57 129.38,391.15 62.18,103.87 140.46,177.68 234.76,221.52 94.3,43.92 214.27,65.13 359.75,65.13 152.81,0 277.08,-21.2 372.9,-65.13 95.1,-43.84 173.3,-115.51 233.24,-216.42 59.94,-100.92 103.15,-229.58 128.74,-387.49 25.59,-157.99 38.02,-364.93 38.02,-620.09 0,-151.38 -2.23,-332.72 -7.33,-543.25 -5.1,-210.6 -12.44,-454.85 -21.92,-731.93l397.77 0zm2639.64 692.39c0,325.39 -123.56,568.92 -370.75,730.5 -247.11,161.58 -579.12,242.01 -995.86,242.01 -52.69,0 -98.77,-1.43 -137.51,-4.38 0,311.52 11.72,687.37 34.36,1128.98l-410.92 0c21.2,-405.82 32.2,-894.23 32.2,-1465.3 0,-491.43 -11,-932.33 -32.2,-1324.2l306.42 0c32.84,0 126.51,-1.51 281.47,-5.9 155.04,-4.38 286.65,-6.54 395.62,-6.54 274.21,0 492.07,62.1 654.37,187.17 161.66,125.07 242.81,297.57 242.81,517.66zm-357.6 124.35c0,-367.08 -250.78,-550.58 -752.42,-550.58 -122.04,0 -260.26,10.2 -413.08,32.12 10.2,232.52 15.31,595.22 15.31,1088.01 49.74,2.95 111.2,4.38 184.3,4.38 643.45,0 965.89,-191.55 965.89,-573.94zm3014.05 1972.75l-413.87 0c-136.79,-410.21 -236.91,-681.47 -299.8,-813.8 -80.43,-167.48 -171.15,-274.93 -271.98,-323.96 -80.43,-38.02 -223.76,-57.79 -430.69,-57.79 -121.4,0 -229.65,1.51 -323.24,4.38 0,461.46 8.05,858.44 25.59,1191.16l-398.49 0c21.2,-443.13 32.2,-930.82 32.2,-1465.3 0,-502.36 -11,-943.97 -32.2,-1324.2l302.03 0c64.33,0 145.48,-1.51 244.16,-5.9 98.77,-4.38 211.32,-6.54 338.54,-6.54 625.19,0 938.15,215.71 938.15,647.12 0,358.23 -175.45,610.53 -527.23,756l0 21.2c157.27,47.59 284.5,156.48 381.75,327.62 81.15,143.33 225.91,492.79 435.08,1049.99zm-655.88 -2009.34c0,-339.98 -229.65,-509.61 -689.52,-509.61 -164.53,0 -302.03,8.77 -413.87,27.74 10.2,248.63 15.31,586.45 15.31,1012.76 85.61,2.87 167.48,4.38 246.47,4.38 560.79,0 841.62,-178.48 841.62,-535.28zm3476.79 2009.34l-451.82 0c0,-95.82 -90,-396.34 -269.83,-901.56l-1236.44 0c-176.96,497.97 -265.45,798.49 -265.45,901.56l-432.84 0c0,-52.61 184.22,-509.61 552.73,-1370.28 368.52,-859.87 552.81,-1332.97 552.81,-1419.22l497.17 0c0,84.82 175.53,550.58 526.51,1399.45 351.7,848.23 527.15,1311.85 527.15,1390.05zm-820.33 -1182.31c-335.67,-838.75 -503.87,-1284.03 -503.87,-1336.64l-23.36 0c0,43.84 -173.3,489.84 -520.61,1336.64l1047.84 0zm3182.89 -1607.19c0,119.17 -180.63,582.71 -541.1,1392.92 -360.46,809.41 -540.38,1275.18 -540.38,1396.58l-278.6 0c0,-109.69 -170.35,-571.79 -511.12,-1385.66 -340.7,-814.51 -511.04,-1281.72 -511.04,-1403.84l407.26 0c0,111.84 130.17,508.17 389.72,1190.36 260.26,682.19 389.72,1071.91 389.72,1170.67l21.92 0c0,-111.2 130.89,-500.12 394.1,-1166.29 262.5,-666.09 394.18,-1064.66 394.18,-1194.75l385.34 0zm2615.4 2789.5l-451.82 0c0,-95.82 -90,-396.34 -269.83,-901.56l-1236.44 0c-176.96,497.97 -265.45,798.49 -265.45,901.56l-432.84 0c0,-52.61 184.22,-509.61 552.73,-1370.28 368.52,-859.87 552.81,-1332.97 552.81,-1419.22l497.17 0c0,84.82 175.53,550.58 526.51,1399.45 351.7,848.23 527.15,1311.85 527.15,1390.05zm-820.33 -1182.31c-335.67,-838.75 -503.87,-1284.03 -503.87,-1336.64l-23.36 0c0,43.84 -173.3,489.84 -520.61,1336.64l1047.84 0z"/>
   <path class="fil5" d="M20805.81 6215.43l-240.42 0c0,-190.2 -13.07,-464.65 -39.7,-824.64 -26.15,-359.51 -40.57,-574.97 -41.85,-646.56l-13.15 0c-85.05,277 -193.23,577.68 -323.72,901.8 -130.89,324.2 -196.33,513.99 -196.33,569.39l-172.74 0c0,-59.79 -60.66,-253.09 -182.86,-579.84 -121.72,-326.83 -198.89,-545.4 -231.17,-656.2 -32.28,-110.8 -54.6,-189.32 -66.32,-235.16l-13.15 0c-2.15,116.46 -19.13,352.1 -50.14,706.82 -31.41,354.25 -46.71,609.01 -46.71,764.37l-219.85 0c0,-8.69 28.78,-243.05 86.81,-703.71 58.03,-460.35 86.81,-780.56 86.81,-960.79l336.39 0c0,93.82 68.08,328.1 204.62,703.31 136.15,374.81 204.23,602.08 204.23,681.07l13.07 0c0,-79 76.37,-306.74 229.89,-683.23 153.61,-376.09 229.97,-609.97 229.97,-701.16l328.5 0c0,180.23 19.61,498.69 58.91,956.4 39.3,457.64 58.91,693.67 58.91,708.1zm695.02 0l-242.57 0c12.67,-276.21 19.21,-567.64 19.21,-874.38 0,-301.48 -6.54,-565.01 -19.21,-790.12l242.57 0c-11.8,233 -17.86,496.06 -17.86,790.12 0,308.49 6.06,599.92 17.86,874.38zm1763.98 0l-178.88 0c0,-14.43 -139.66,-218.57 -419.29,-612.12 -292.31,-413.63 -458.99,-674.06 -499.57,-782.31l-13.07 0c15.23,205.1 23.12,381.35 23.12,527.94 0,286.17 6.54,575.05 19.21,866.49l-214.67 0c14.35,-277.08 21.76,-568.52 21.76,-874.38 0,-300.6 -7.41,-564.13 -21.76,-790.12l245.2 0c0,23.99 128.66,218.18 386.13,582.95 269.19,383.5 422.72,633.48 460.27,749.07l12.67 0c-14.43,-207.65 -21.84,-384.38 -21.84,-529.22 0,-315.03 -5.66,-582.87 -17.86,-802.8l218.57 0c-14.43,225.99 -21.84,489.52 -21.84,790.12 0,305.86 7.41,597.29 21.84,874.38zm723.4 0l-242.57 0c12.67,-276.21 19.21,-567.64 19.21,-874.38 0,-301.48 -6.54,-565.01 -19.21,-790.12l242.57 0c-11.8,233 -17.86,496.06 -17.86,790.12 0,308.49 6.06,599.92 17.86,874.38zm1451.98 -430.61c0,315.03 -219.45,472.94 -657.88,472.94 -160.62,0 -302.83,-18.33 -427.19,-55l44.96 -200.64c143.09,49.26 278.76,74.13 407.5,74.13 289.68,0 434.6,-82.03 434.6,-245.6 0,-82.5 -37.55,-153.21 -112.64,-212.12 -50.14,-39.22 -148.75,-91.59 -296.22,-157.43 -155.28,-68.95 -263.93,-132.24 -325.95,-190.28 -86.33,-80.27 -129.14,-180.63 -129.14,-301.48 0,-126.51 43.68,-229.02 131.77,-308.41 97.73,-88.64 236.51,-132.64 415.39,-132.64 202.87,0 341.65,13.07 416.66,39.7l-31.01 202.87c-129.14,-40.57 -266.96,-61.06 -412.68,-61.06 -219.05,0 -328.58,73.26 -328.58,219.85 0,70.71 31.89,130.01 94.7,177.6 40.97,29.65 131.29,75.01 270.95,135.67 159.27,68.95 274.45,134.4 345.08,196.73 106.5,93.82 159.67,208.61 159.67,345.16zm1431.58 -1233.89l-6.14 180.63c-168.83,-8.69 -343.33,-13.07 -523.08,-13.07 -1.75,163.57 -2.63,371.31 -2.63,622.56 0,277.96 4.3,569.39 13.07,874.38l-233.88 0c10.04,-290.56 15.31,-581.99 15.31,-874.38 0,-247.75 -2.63,-455.48 -7.89,-622.56 -126.11,0 -303.23,5.26 -531.37,15.31l6.06 -182.86 1270.56 0zm1575.06 1664.5l-269.67 0c0,-57.15 -53.65,-236.51 -160.94,-537.99l-737.83 0c-105.54,297.17 -158.39,476.45 -158.39,537.99l-258.27 0c0,-31.41 109.93,-304.11 329.85,-817.62 219.93,-513.12 329.85,-795.38 329.85,-846.88l296.69 0c0,50.62 104.66,328.58 314.07,835.08 209.89,506.1 314.63,782.71 314.63,829.42zm-489.52 -705.47c-200.32,-500.44 -300.6,-766.21 -300.6,-797.61l-14.03 0c0,26.23 -103.39,292.31 -310.64,797.61l625.27 0zm2004.32 705.47l-246.95 0c-81.55,-244.8 -141.33,-406.62 -178.88,-485.62 -47.99,-99.88 -102.03,-164.05 -162.3,-193.31 -47.99,-22.64 -133.52,-34.44 -257,-34.44 -72.38,0 -136.95,0.88 -192.83,2.63 0,275.33 4.78,512.24 15.31,710.73l-237.79 0c12.67,-264.41 19.21,-555.44 19.21,-874.38 0,-299.72 -6.54,-563.26 -19.21,-790.12l180.15 0c38.42,0 86.81,-0.88 145.72,-3.51 58.91,-2.55 126.11,-3.91 202.07,-3.91 372.98,0 559.75,128.74 559.75,386.13 0,213.79 -104.74,364.29 -314.55,451.18l0 12.59c93.74,28.38 169.71,93.42 227.74,195.46 48.39,85.53 134.8,294.06 259.55,626.55zm-391.31 -1198.97c0,-202.87 -137.03,-304.11 -411.48,-304.11 -98.13,0 -180.15,5.26 -246.95,16.58 6.14,148.35 9.17,349.94 9.17,604.31 51.1,1.75 99.96,2.63 147.07,2.63 334.64,0 502.2,-106.5 502.2,-319.41zm1687.14 768.36c0,315.03 -219.45,472.94 -657.88,472.94 -160.62,0 -302.83,-18.33 -427.19,-55l44.96 -200.64c143.09,49.26 278.76,74.13 407.5,74.13 289.68,0 434.6,-82.03 434.6,-245.6 0,-82.5 -37.55,-153.21 -112.64,-212.12 -50.14,-39.22 -148.75,-91.59 -296.22,-157.43 -155.28,-68.95 -263.93,-132.24 -325.95,-190.28 -86.33,-80.27 -129.14,-180.63 -129.14,-301.48 0,-126.51 43.68,-229.02 131.77,-308.41 97.73,-88.64 236.51,-132.64 415.39,-132.64 202.87,0 341.65,13.07 416.66,39.7l-31.01 202.87c-129.14,-40.57 -266.96,-61.06 -412.68,-61.06 -219.05,0 -328.58,73.26 -328.58,219.85 0,70.71 31.89,130.01 94.7,177.6 40.97,29.65 131.29,75.01 270.95,135.67 159.27,68.95 274.45,134.4 345.08,196.73 106.5,93.82 159.67,208.61 159.67,345.16zm1431.58 -1233.89l-6.14 180.63c-168.83,-8.69 -343.33,-13.07 -523.08,-13.07 -1.75,163.57 -2.63,371.31 -2.63,622.56 0,277.96 4.3,569.39 13.07,874.38l-233.88 0c10.04,-290.56 15.31,-581.99 15.31,-874.38 0,-247.75 -2.63,-455.48 -7.89,-622.56 -126.11,0 -303.23,5.26 -531.37,15.31l6.06 -182.86 1270.56 0zm1463.78 0c0,71.1 -107.77,347.71 -322.84,831.17 -215.07,482.98 -322.44,760.87 -322.44,833.33l-166.2 0c0,-65.44 -101.63,-341.17 -304.98,-826.79 -203.35,-486.01 -304.98,-764.85 -304.98,-837.71l243.05 0c0,66.8 77.64,303.23 232.52,710.33 155.36,407.02 232.52,639.62 232.52,698.53l13.15 0c0,-66.32 78.04,-298.45 235.16,-695.9 156.64,-397.53 235.16,-635.32 235.16,-712.96l229.89 0zm1703.72 806.7c0,275.33 -80.27,495.26 -241.69,660.19 -161.02,164.85 -347.31,247.35 -558.47,247.35 -202.87,0 -380.47,-75.49 -533.6,-226.86 -153.13,-150.98 -229.5,-355.6 -229.5,-613 0,-278.36 80.75,-499.57 241.69,-662.74 161.02,-163.17 347.31,-244.8 558.47,-244.8 202.87,0 380.95,75.97 533.6,226.86 153.13,151.46 229.5,355.6 229.5,613zm-227.26 29.73c0,-219.93 -58.03,-390.52 -173.22,-510.96 -115.66,-120.37 -248.71,-180.63 -399.68,-180.63 -139.58,0 -263.93,63.29 -373.06,190.28 -109.05,126.9 -163.57,296.69 -163.57,508.73 0,220.73 58.03,391.31 174.09,511.76 116.46,120.85 249.58,181.03 399.6,181.03 139.66,0 264.01,-64.09 372.66,-192.83 108.57,-128.74 163.17,-297.97 163.17,-507.38zm2146.13 -836.44l-10.52 190.67c-226.39,-10.04 -483.38,-15.23 -770.51,-15.23 10.04,141.33 15.31,336.31 15.31,585.5 200.24,0 394.82,-3.51 584.22,-10.52l0 185.49c-182.38,-7.01 -377.44,-10.04 -584.22,-10.04 0,332.88 4.78,579.36 13.95,738.63l-232.52 0c11.8,-264.41 17.86,-555.44 17.86,-874.38 0,-299.72 -6.06,-563.26 -17.86,-790.12l984.3 0zm539.26 1664.5l-242.57 0c12.67,-276.21 19.21,-567.64 19.21,-874.38 0,-301.48 -6.54,-565.01 -19.21,-790.12l242.57 0c-11.8,233 -17.86,496.06 -17.86,790.12 0,308.49 6.06,599.92 17.86,874.38zm1763.98 0l-178.88 0c0,-14.43 -139.66,-218.57 -419.29,-612.12 -292.31,-413.63 -458.99,-674.06 -499.57,-782.31l-13.07 0c15.23,205.1 23.12,381.35 23.12,527.94 0,286.17 6.54,575.05 19.21,866.49l-214.67 0c14.35,-277.08 21.76,-568.52 21.76,-874.38 0,-300.6 -7.41,-564.13 -21.76,-790.12l245.2 0c0,23.99 128.66,218.18 386.13,582.95 269.19,383.5 422.72,633.48 460.27,749.07l12.67 0c-14.43,-207.65 -21.84,-384.38 -21.84,-529.22 0,-315.03 -5.66,-582.87 -17.86,-802.8l218.57 0c-14.43,225.99 -21.84,489.52 -21.84,790.12 0,305.86 7.41,597.29 21.84,874.38zm1839.47 0l-269.67 0c0,-57.15 -53.65,-236.51 -160.94,-537.99l-737.83 0c-105.54,297.17 -158.39,476.45 -158.39,537.99l-258.27 0c0,-31.41 109.93,-304.11 329.85,-817.62 219.93,-513.12 329.85,-795.38 329.85,-846.88l296.69 0c0,50.62 104.66,328.58 314.07,835.08 209.89,506.1 314.63,782.71 314.63,829.42zm-489.52 -705.47c-200.32,-500.44 -300.6,-766.21 -300.6,-797.61l-14.03 0c0,26.23 -103.39,292.31 -310.64,797.61l625.27 0zm2027.04 705.47l-178.88 0c0,-14.43 -139.66,-218.57 -419.29,-612.12 -292.31,-413.63 -458.99,-674.06 -499.57,-782.31l-13.07 0c15.23,205.1 23.12,381.35 23.12,527.94 0,286.17 6.54,575.05 19.21,866.49l-214.67 0c14.35,-277.08 21.76,-568.52 21.76,-874.38 0,-300.6 -7.41,-564.13 -21.76,-790.12l245.2 0c0,23.99 128.66,218.18 386.13,582.95 269.19,383.5 422.72,633.48 460.27,749.07l12.67 0c-14.43,-207.65 -21.84,-384.38 -21.84,-529.22 0,-315.03 -5.66,-582.87 -17.86,-802.8l218.57 0c-14.43,225.99 -21.84,489.52 -21.84,790.12 0,305.86 7.41,597.29 21.84,874.38zm1608.22 -203.35l-16.58 190.67c-105.14,31.41 -219.05,47.11 -342.53,47.11 -293.19,0 -513.52,-80.27 -660.99,-240.81 -147.47,-160.54 -221.21,-356.88 -221.21,-588.53 0,-243.05 82.5,-452.45 246.55,-628.3 164.45,-176.25 385.65,-263.93 663.62,-263.93 76.76,0 157.51,11.32 242.97,34.44l-35.79 203.35c-98.13,-31.01 -185.41,-46.31 -262.18,-46.31 -206.38,0 -362.54,64.17 -469.03,192.03 -106.42,127.78 -159.67,284.02 -159.67,469.03 0,188.44 61.06,349.86 183.66,484.26 123.08,134.8 292.31,201.99 509.21,201.99 82.42,0 189.72,-18.33 321.96,-55zm553.21 203.35l-242.57 0c12.67,-276.21 19.21,-567.64 19.21,-874.38 0,-301.48 -6.54,-565.01 -19.21,-790.12l242.57 0c-11.8,233 -17.86,496.06 -17.86,790.12 0,308.49 6.06,599.92 17.86,874.38zm1116.07 -1664.5c-6.14,129.61 -10.44,273.18 -13.55,431.09 -3.03,157.51 -4.3,331.13 -4.3,520.05 0,137.43 -11.8,250.46 -34.52,340.3 -23.12,89.44 -59.31,164.53 -108.17,225.99 -48.86,61.54 -111.68,106.9 -188.52,137.03 -76.76,29.65 -168.83,44.48 -276.13,44.48 -82.5,0 -156.64,-8.69 -222.08,-26.54l18.73 -186.77c60.66,27.9 123.95,41.85 189.4,41.85 73.26,0 137.43,-10.04 192.35,-30.93 55,-20.96 98.61,-53.65 131.77,-97.73 32.76,-44.56 56.28,-99.08 70.23,-163.65 14.03,-64.97 20.96,-149.62 20.96,-254.37 0,-387.01 -6.06,-713.76 -19.21,-980.8l243.05 0zm1785.82 1664.5l-269.67 0c0,-57.15 -53.65,-236.51 -160.94,-537.99l-737.83 0c-105.54,297.17 -158.39,476.45 -158.39,537.99l-258.27 0c0,-31.41 109.93,-304.11 329.85,-817.62 219.93,-513.12 329.85,-795.38 329.85,-846.88l296.69 0c0,50.62 104.66,328.58 314.07,835.08 209.89,506.1 314.63,782.71 314.63,829.42zm-489.52 -705.47c-200.32,-500.44 -300.6,-766.21 -300.6,-797.61l-14.03 0c0,26.23 -103.39,292.31 -310.64,797.61l625.27 0z"/>
  </g>
 </g>
</svg>
