<?xml version="1.0" encoding="UTF-8"?>
<!DOCTYPE svg PUBLIC "-//W3C//DTD SVG 1.1//EN" "http://www.w3.org/Graphics/SVG/1.1/DTD/svg11.dtd">
<!-- Creator: CorelDRAW 2020 (64-Bit) -->
<svg xmlns="http://www.w3.org/2000/svg" xml:space="preserve" width="49.5159mm" height="19.9158mm" version="1.1" style="shape-rendering:geometricPrecision; text-rendering:geometricPrecision; image-rendering:optimizeQuality; fill-rule:evenodd; clip-rule:evenodd"
viewBox="0 0 3410 1371.54"
 xmlns:xlink="http://www.w3.org/1999/xlink"
 xmlns:xodm="http://www.corel.com/coreldraw/odm/2003">
 <defs>
  <style type="text/css">
   <![CDATA[
    .str8 {stroke:#E31E24;stroke-width:5.54;stroke-miterlimit:22.9256}
    .str7 {stroke:#FEFEFE;stroke-width:5.25;stroke-miterlimit:22.9256}
    .str4 {stroke:#FFED00;stroke-width:5.25;stroke-miterlimit:22.9256}
    .str3 {stroke:#E31E24;stroke-width:5.25;stroke-miterlimit:22.9256}
    .str12 {stroke:#E31E24;stroke-width:5.25;stroke-miterlimit:3.8637}
    .str2 {stroke:#00A0E3;stroke-width:5.25;stroke-miterlimit:22.9256}
    .str1 {stroke:#0060AA;stroke-width:5.25;stroke-miterlimit:22.9256}
    .str13 {stroke:#E31E24;stroke-width:7.85;stroke-miterlimit:3.8637}
    .str0 {stroke:#E31E24;stroke-width:6.28;stroke-miterlimit:22.9256}
    .str9 {stroke:#FEFEFE;stroke-width:1.25;stroke-miterlimit:22.9256}
    .str5 {stroke:#2B2A29;stroke-width:1.25;stroke-miterlimit:22.9256}
    .str6 {stroke:#2B2A29;stroke-width:1.25;stroke-miterlimit:3.8637}
    .str11 {stroke:#FFED00;stroke-width:1.25;stroke-miterlimit:22.9256}
    .str10 {stroke:#E31E24;stroke-width:1.25;stroke-miterlimit:22.9256}
    .fil6 {fill:none;fill-rule:nonzero}
    .fil7 {fill:#FEFEFE}
    .fil9 {fill:#FFED00}
    .fil10 {fill:#E31E24}
    .fil1 {fill:#FEFEFE;fill-rule:nonzero}
    .fil0 {fill:#898989;fill-rule:nonzero}
    .fil8 {fill:#2B2A29;fill-rule:nonzero}
    .fil5 {fill:#FFED00;fill-rule:nonzero}
    .fil4 {fill:#E31E24;fill-rule:nonzero}
    .fil3 {fill:#00A0E3;fill-rule:nonzero}
    .fil2 {fill:#0060AA;fill-rule:nonzero}
   ]]>
  </style>
 </defs>
 <g id="Layer_x0020_1">
  <metadata id="CorelCorpID_0Corel-Layer"/>
  <g id="_1921725290800">
   <path class="fil0" d="M1376.63 717.52l-102.16 0 0 -12.82c4.85,-1.33 8.64,-2.72 11.42,-4.18 2.79,-1.53 4.85,-3.59 6.18,-6.25 1.39,-2.66 2.26,-6.05 2.66,-10.1 0.4,-4.12 0.59,-9.3 0.59,-15.48l0 -167.8c0,-6.12 -0.19,-11.23 -0.53,-15.34 -0.26,-4.19 -1.13,-7.51 -2.52,-10.16 -1.33,-2.59 -3.39,-4.66 -6.18,-6.32 -2.79,-1.59 -6.65,-3.05 -11.62,-4.38l0 -12.82 113.46 0c15.34,0 28.37,1.06 39.06,3.19 10.7,2.19 20.06,5.45 28.1,9.83 6.77,3.65 12.49,8.24 17.13,13.75 4.65,5.52 8.24,11.96 10.76,19.27 2.59,7.31 3.85,15.87 3.85,25.58 0,12.69 -2.26,23.65 -6.71,32.68 -4.52,9.1 -10.56,16.68 -18.13,22.72 -7.58,5.98 -17.74,11.69 -30.43,17.01l0 1.93c9.57,4.18 17.53,9.7 23.78,16.67 6.31,6.91 12.02,15.74 17.07,26.37l12.22 26.44c5.45,11.83 10.89,20.66 16.27,26.58 5.39,5.91 11.76,9.5 19.2,10.83l0 12.82 -74.93 0c-7.57,-10.36 -16.07,-25.84 -25.51,-46.3l-15.21 -33.28c-4.52,-9.9 -8.44,-16.87 -11.62,-21.06 -3.26,-4.12 -6.65,-6.98 -10.03,-8.57 -3.45,-1.53 -8.77,-2.33 -15.87,-2.33l-11.29 0 0 62.71c0,9.7 0.47,16.54 1.33,20.39 0.93,3.93 2.73,7.05 5.32,9.37 2.59,2.32 7.38,4.38 14.34,6.24l0 12.82zm-20.99 -242.47l0 108.15 19.27 0c10.36,0 18.93,-1.39 25.71,-4.12 6.71,-2.79 12.09,-6.71 16,-11.69 3.99,-4.99 6.71,-10.89 8.17,-17.61 1.53,-6.77 2.26,-14.15 2.26,-22.18 0,-17.67 -4.12,-30.89 -12.42,-39.73 -8.31,-8.84 -20.66,-13.22 -37,-13.22 -11.16,0 -18.47,0.13 -21.99,0.39zm375.66 -23.18l0 61.91 -26.71 0c-4.25,-12.35 -7.91,-20.66 -10.89,-25.04 -2.99,-4.32 -6.58,-7.78 -10.7,-10.3 -4.18,-2.52 -11.23,-3.78 -21.19,-3.78l-42.45 0 0 93.4 25.71 0c5.72,0 10.16,-0.8 13.42,-2.46 3.25,-1.59 5.91,-4.32 8.04,-8.04 2.19,-3.79 4.19,-9.63 6.18,-17.54l21.99 0 0 79.05 -21.99 0c-1.86,-7.57 -3.85,-13.28 -6.05,-17.27 -2.19,-3.92 -4.85,-6.78 -7.91,-8.44 -3.05,-1.72 -7.64,-2.52 -13.68,-2.52l-25.71 0 0 103.89 42.25 0c4.52,0 8.37,-0.26 11.49,-0.86 3.06,-0.6 5.85,-1.6 8.37,-2.99 2.46,-1.46 4.79,-3.39 7.05,-5.85 2.32,-2.46 4.32,-5.12 6.05,-7.97 1.79,-2.85 3.59,-6.64 5.58,-11.29 1.93,-4.72 4.05,-11.09 6.38,-19.27l26.71 0 -3.72 71.02 -191.32 0 0 -12.82c4.85,-1.33 8.64,-2.72 11.42,-4.18 2.79,-1.53 4.85,-3.59 6.18,-6.25 1.39,-2.66 2.26,-6.05 2.66,-10.1 0.4,-4.12 0.59,-9.3 0.59,-15.48l0 -167.8c0,-6.12 -0.19,-11.23 -0.53,-15.34 -0.26,-4.19 -1.13,-7.51 -2.52,-10.16 -1.33,-2.59 -3.39,-4.66 -6.18,-6.32 -2.79,-1.59 -6.65,-3.05 -11.62,-4.38l0 -12.82 193.11 0zm118.31 217.03c0,8.51 0.33,14.61 1,18.2 0.6,3.52 1.66,6.38 3.19,8.51 1.46,2.19 3.65,3.92 6.45,5.38 2.79,1.4 7.11,2.66 12.88,3.72l0 12.82 -104.69 0 0 -12.82c4.85,-1.33 8.64,-2.72 11.42,-4.18 2.79,-1.53 4.85,-3.59 6.18,-6.25 1.39,-2.66 2.26,-6.05 2.66,-10.1 0.4,-4.12 0.59,-9.3 0.59,-15.48l0 -167.8c0,-6.12 -0.19,-11.23 -0.53,-15.34 -0.26,-4.19 -1.13,-7.51 -2.52,-10.16 -1.33,-2.59 -3.39,-4.66 -6.18,-6.32 -2.79,-1.59 -6.65,-3.05 -11.62,-4.38l0 -12.82 113.06 0c32.88,0 57.46,5.85 73.8,17.6 16.34,11.76 24.52,29.83 24.52,54.21 0,17.27 -3.86,32.22 -11.49,44.98 -7.64,12.69 -18.73,22.32 -33.28,28.9 -14.54,6.51 -32.68,9.83 -54.47,9.83 -12.62,0 -22.92,-0.27 -30.96,-0.8l0 62.31zm0 -84.3l16.74 0c12.95,0 23.25,-1.86 30.96,-5.52 7.64,-3.72 13.28,-9.63 17.01,-17.66 3.72,-8.04 5.58,-18.87 5.58,-32.48 0,-13.49 -1.86,-24.25 -5.58,-32.22 -3.73,-7.97 -9.1,-13.61 -16.28,-17 -7.11,-3.39 -16.27,-5.05 -27.44,-5.05 -9.04,0 -16.07,0.13 -20.99,0.39l0 109.55zm334.94 -83.9c0,-9.7 -0.4,-16.47 -1.26,-20.33 -0.8,-3.79 -2.46,-6.91 -4.92,-9.24 -2.52,-2.32 -7.31,-4.45 -14.41,-6.44l0 -12.82 85.63 0 0 12.82c-4.65,1.33 -8.37,2.72 -11.09,4.18 -2.72,1.53 -4.79,3.59 -6.25,6.25 -1.39,2.66 -2.32,6.05 -2.72,10.1 -0.4,4.12 -0.6,9.3 -0.6,15.48l0 121.63c0,16.14 -1.26,29.56 -3.86,40.39 -2.59,10.83 -6.64,19.99 -12.09,27.37 -5.45,7.38 -12.22,13.35 -20.33,17.87 -8.11,4.59 -17.2,7.84 -27.37,9.77 -10.1,1.93 -21.46,2.92 -34.01,2.92 -18.47,0 -34.01,-1.92 -46.77,-5.78 -12.69,-3.79 -23.05,-9.57 -31.02,-17.27 -7.97,-7.77 -13.88,-17.14 -17.66,-28.17 -3.86,-11.03 -5.78,-25.24 -5.78,-42.58l0 -125.95c0,-6.12 -0.13,-11.23 -0.46,-15.34 -0.33,-4.19 -1.2,-7.51 -2.53,-10.16 -1.39,-2.59 -3.45,-4.66 -6.24,-6.32 -2.8,-1.59 -6.65,-3.05 -11.56,-4.38l0 -12.82 102.17 0 0 12.82c-5.32,1.46 -9.24,2.99 -11.82,4.58 -2.53,1.66 -4.39,3.59 -5.72,5.98 -1.26,2.33 -2.19,5.39 -2.72,9.1 -0.53,3.79 -0.8,9.3 -0.8,16.54l0 128.48c0,10.23 0.67,19.59 1.99,28.03 1.27,8.44 3.66,15.68 7.11,21.66 3.39,6.05 8.17,10.7 14.28,13.95 6.11,3.25 13.95,4.85 23.51,4.85 13.28,0 23.12,-2.66 29.63,-7.97 6.45,-5.31 11.03,-12.75 13.69,-22.32 2.65,-9.5 3.98,-23.72 3.98,-42.71l0 -124.16zm265.72 77.65c18.13,5.72 32.02,14.02 41.52,24.85 9.57,10.83 14.34,23.85 14.34,38.99 0,12.95 -2.19,24.25 -6.58,33.88 -4.32,9.57 -10.96,17.47 -19.79,23.65 -8.9,6.18 -19.33,10.7 -31.36,13.55 -12.02,2.85 -27.31,4.25 -45.84,4.25l-119.9 0 0 -12.82c4.85,-1.33 8.64,-2.72 11.42,-4.18 2.79,-1.53 4.85,-3.59 6.18,-6.25 1.39,-2.66 2.26,-6.05 2.66,-10.1 0.4,-4.12 0.59,-9.3 0.59,-15.48l0 -167.8c0,-6.12 -0.19,-11.23 -0.53,-15.34 -0.26,-4.19 -1.13,-7.51 -2.52,-10.16 -1.33,-2.59 -3.39,-4.66 -6.18,-6.32 -2.79,-1.59 -6.65,-3.05 -11.62,-4.38l0 -12.82 127.48 0c14.54,0 26.44,0.73 35.6,2.13 12.22,1.92 22.79,5.31 31.75,10.1 8.04,4.32 14.34,10.43 18.86,18.33 4.52,7.91 6.85,17.34 6.85,28.24 0,29.3 -17.67,51.29 -52.94,65.96l0 1.73zm-60.52 -10.1c12.95,0 23.12,-1.86 30.56,-5.65 7.38,-3.79 12.95,-9.1 16.81,-16.07 3.85,-6.91 5.71,-16.47 5.71,-28.7 0,-10.76 -2.06,-19.27 -6.18,-25.58 -4.18,-6.32 -10.1,-10.83 -17.73,-13.55 -7.64,-2.72 -17.2,-4.05 -28.63,-4.05 -9.04,0 -17.86,0.33 -26.44,0.93l0 92.67 25.91 0zm-25.91 125.89c7.64,0.39 16.47,0.59 26.44,0.59 12.36,0 22.52,-1.52 30.49,-4.58 7.97,-3.06 14.15,-8.37 18.6,-15.94 4.39,-7.58 6.58,-18 6.58,-31.22 0,-9.37 -1.13,-17.34 -3.46,-24.05 -2.39,-6.71 -5.85,-12.09 -10.56,-16.14 -4.66,-4.12 -10.23,-7.04 -16.74,-8.97 -6.45,-1.86 -14.55,-2.79 -24.32,-2.79l-27.04 0 0 103.1zm280.6 -242.27l0 12.82c-4.65,1.33 -8.37,2.72 -11.09,4.18 -2.72,1.53 -4.78,3.53 -6.31,6.18 -1.46,2.6 -2.46,5.92 -2.92,9.97 -0.47,4.12 -0.67,9.3 -0.67,15.48l0 193.84 37.73 0c7.58,0 13.55,-1.12 18.14,-3.45 4.52,-2.39 8.44,-5.98 11.76,-10.83 3.32,-4.86 6.18,-11.23 8.57,-19.07 2.4,-7.84 4.32,-15.21 5.72,-22.12l26.71 0 -4.32 78.65 -185.47 0 0 -12.82c4.85,-1.33 8.64,-2.72 11.42,-4.32 2.79,-1.53 4.85,-3.65 6.18,-6.31 1.39,-2.66 2.26,-6.05 2.66,-10.1 0.4,-4.12 0.59,-9.3 0.59,-15.48l0 -167.6c0,-6.12 -0.19,-11.23 -0.53,-15.34 -0.26,-4.19 -1.13,-7.51 -2.52,-10.16 -1.33,-2.59 -3.39,-4.66 -6.18,-6.32 -2.79,-1.59 -6.65,-3.05 -11.62,-4.38l0 -12.82 102.16 0zm198.56 216.83c0,4.52 0.13,8.7 0.4,12.62 0.27,3.92 0.73,7.11 1.53,9.57 0.8,2.46 1.93,4.52 3.39,6.18 1.53,1.73 3.59,3.19 6.18,4.39 2.59,1.26 5.78,2.32 9.5,3.25l0 12.82 -102.16 0 0 -12.82c4.85,-1.33 8.64,-2.72 11.42,-4.18 2.79,-1.53 4.85,-3.59 6.18,-6.25 1.39,-2.66 2.26,-6.05 2.66,-10.1 0.4,-4.12 0.59,-9.3 0.59,-15.48l0 -168c0,-6.18 -0.19,-11.36 -0.53,-15.34 -0.26,-4.06 -1.13,-7.38 -2.52,-10.03 -1.33,-2.66 -3.39,-4.78 -6.18,-6.31 -2.79,-1.6 -6.65,-2.99 -11.62,-4.32l0 -12.82 102.16 0 0 12.82c-5.31,1.46 -9.23,2.99 -11.76,4.58 -2.53,1.66 -4.45,3.59 -5.72,5.98 -1.32,2.33 -2.26,5.39 -2.72,9.1 -0.53,3.79 -0.8,9.3 -0.8,16.54l0 167.8zm274.63 -2.92c5.05,7.77 9.3,13.95 12.75,18.53 3.45,4.65 6.45,8.24 9.04,10.83 2.59,2.59 5.18,4.59 7.71,5.92 2.52,1.39 5.85,2.66 10.03,3.85l0 12.62 -105.49 0 0 -12.82c4.39,-0.66 7.38,-1.73 8.97,-3.25 1.53,-1.47 2.33,-3.46 2.33,-5.92 0,-2.06 -0.33,-4.12 -0.86,-6.11 -0.6,-2.06 -2,-4.99 -4.19,-8.9 -2.26,-3.85 -6.71,-11.03 -13.42,-21.39l-29.83 -45.9c-3.59,-5.59 -6.78,-9.97 -9.43,-13.09 -2.65,-3.12 -5.31,-5.31 -7.97,-6.71 -2.66,-1.33 -6.31,-1.99 -10.96,-1.99l-3.92 0 0 77.25c0,4.52 0.13,8.7 0.4,12.62 0.27,3.92 0.73,7.11 1.53,9.57 0.8,2.46 1.93,4.52 3.39,6.18 1.53,1.73 3.59,3.19 6.18,4.39 2.59,1.26 5.78,2.32 9.5,3.25l0 12.82 -102.16 0 0 -12.82c4.85,-1.33 8.64,-2.72 11.42,-4.18 2.79,-1.53 4.85,-3.59 6.18,-6.25 1.39,-2.66 2.26,-6.05 2.66,-10.1 0.4,-4.12 0.59,-9.3 0.59,-15.48l0 -167.8c0,-6.12 -0.19,-11.23 -0.53,-15.34 -0.26,-4.19 -1.13,-7.51 -2.52,-10.16 -1.33,-2.59 -3.39,-4.66 -6.18,-6.32 -2.79,-1.59 -6.65,-3.05 -11.62,-4.38l0 -12.82 102.16 0 0 12.82c-5.45,1.46 -9.43,2.99 -11.96,4.72 -2.52,1.66 -4.39,3.65 -5.65,5.98 -1.19,2.39 -2.13,5.31 -2.59,8.97 -0.53,3.65 -0.8,9.17 -0.8,16.54l0 69.29 4.12 0c5.92,0 10.7,-0.67 14.15,-1.93 3.52,-1.33 7.11,-3.65 10.83,-7.04 3.72,-3.33 10.83,-11.23 21.39,-23.59 10.56,-12.42 18.27,-21.99 22.99,-28.63 4.72,-6.71 7.97,-12.22 9.7,-16.54 1.8,-4.39 2.66,-8.7 2.66,-12.95 0,-4.52 -1.53,-8.11 -4.59,-10.7 -3.05,-2.59 -7.37,-3.99 -12.95,-4.12l0 -12.82 99.45 0 0 13.22c-4.92,0.93 -9.1,2.26 -12.62,4.12 -3.52,1.79 -7.51,4.72 -12.09,8.84 -4.52,4.12 -10.3,10.1 -17.27,18l-58.39 65.37 67.9 104.36zm193.65 -30.56l-83.11 0 -6.38 18.47c-1.86,5.18 -3.32,10.23 -4.52,15.08 -1.13,4.85 -1.73,10.03 -1.73,15.47 0,12.69 6.71,19.53 20.26,20.46l0 12.82 -83.1 0 0 -12.82c4.79,-0.53 8.97,-2.26 12.62,-5.11 3.65,-2.86 6.91,-6.71 9.9,-11.63 2.99,-4.98 6.18,-12.02 9.57,-21.25l81.18 -216.23 51.95 0 64.24 218.03c2.86,9.7 5.25,16.61 7.18,20.73 1.93,4.05 4.45,7.37 7.57,9.9 3.13,2.53 7.51,4.39 13.09,5.58l0 12.82 -107.49 0 0 -12.82c6.78,-0.79 11.76,-2.66 15.01,-5.65 3.26,-2.99 4.85,-7.24 4.85,-12.69 0,-3.99 -0.46,-8.51 -1.32,-13.42 -0.94,-4.91 -2.4,-11.16 -4.52,-18.66l-5.25 -19.07zm-75.66 -22.78l70.02 0 -31.09 -109.55 -38.92 109.55zm75.62 490.05l-83.11 0 -6.38 18.47c-1.86,5.18 -3.32,10.23 -4.52,15.08 -1.13,4.85 -1.73,10.03 -1.73,15.47 0,12.69 6.71,19.53 20.26,20.46l0 12.82 -83.1 0 0 -12.82c4.79,-0.53 8.97,-2.26 12.62,-5.11 3.65,-2.86 6.91,-6.71 9.9,-11.63 2.99,-4.98 6.18,-12.02 9.57,-21.25l81.18 -216.23 51.95 0 64.24 218.03c2.86,9.7 5.25,16.61 7.18,20.73 1.93,4.05 4.45,7.37 7.57,9.9 3.13,2.53 7.51,4.39 13.09,5.58l0 12.82 -107.49 0 0 -12.82c6.78,-0.79 11.76,-2.66 15.01,-5.65 3.26,-2.99 4.85,-7.24 4.85,-12.69 0,-3.99 -0.46,-8.51 -1.32,-13.42 -0.94,-4.91 -2.4,-11.16 -4.52,-18.66l-5.25 -19.07zm-75.66 -22.78l70.02 0 -31.09 -109.55 -38.92 109.55zm-1731.67 56.26c0,9.97 0.47,16.81 1.27,20.53 0.86,3.65 2.59,6.78 5.18,9.24 2.59,2.45 7.31,4.51 14.21,6.24l0 12.82 -101.57 0 0 -12.82c7.51,-1.99 12.36,-3.92 14.55,-5.85 2.26,-1.99 3.79,-4.71 4.72,-8.3 0.86,-3.59 1.33,-10.83 1.33,-21.86l0 -78.05 -87.96 0 0 78.05c0,4.52 0.13,8.7 0.4,12.62 0.27,3.92 0.73,7.11 1.53,9.57 0.8,2.46 1.93,4.52 3.39,6.18 1.53,1.73 3.59,3.19 6.18,4.39 2.59,1.26 5.78,2.32 9.5,3.25l0 12.82 -102.16 0 0 -12.82c4.85,-1.33 8.64,-2.72 11.42,-4.18 2.79,-1.53 4.85,-3.59 6.18,-6.25 1.39,-2.66 2.26,-6.05 2.66,-10.1 0.4,-4.12 0.59,-9.3 0.59,-15.48l0 -167.8c0,-6.12 -0.19,-11.23 -0.53,-15.34 -0.26,-4.19 -1.13,-7.51 -2.52,-10.16 -1.33,-2.59 -3.39,-4.66 -6.18,-6.32 -2.79,-1.59 -6.65,-3.05 -11.62,-4.38l0 -12.82 102.16 0 0 12.82c-6.84,1.99 -11.56,4.12 -14.08,6.44 -2.52,2.33 -4.32,5.45 -5.38,9.24 -1,3.86 -1.53,10.76 -1.53,20.73l0 65.03 87.96 0 0 -65.03c0,-9.83 -0.4,-16.67 -1.27,-20.53 -0.86,-3.85 -2.52,-6.91 -5.05,-9.37 -2.52,-2.39 -7.31,-4.52 -14.28,-6.51l0 -12.82 101.57 0 0 12.82c-5.71,1.59 -9.9,3.25 -12.49,4.98 -2.59,1.73 -4.45,3.99 -5.52,6.71 -1.13,2.73 -1.79,5.78 -2.12,9.17 -0.34,3.39 -0.54,8.57 -0.54,15.54l0 167.6zm188.37 48.83l-102.16 0 0 -12.82c4.85,-1.33 8.64,-2.72 11.42,-4.18 2.79,-1.53 4.85,-3.59 6.18,-6.25 1.39,-2.66 2.26,-6.05 2.66,-10.1 0.4,-4.12 0.59,-9.3 0.59,-15.48l0 -167.8c0,-6.12 -0.19,-11.23 -0.53,-15.34 -0.26,-4.19 -1.13,-7.51 -2.52,-10.16 -1.33,-2.59 -3.39,-4.66 -6.18,-6.32 -2.79,-1.59 -6.65,-3.05 -11.62,-4.38l0 -12.82 113.46 0c15.34,0 28.37,1.06 39.06,3.19 10.7,2.19 20.06,5.45 28.1,9.83 6.77,3.65 12.49,8.24 17.13,13.75 4.65,5.52 8.24,11.96 10.76,19.27 2.59,7.31 3.85,15.87 3.85,25.58 0,12.69 -2.26,23.65 -6.71,32.68 -4.52,9.1 -10.56,16.68 -18.13,22.72 -7.58,5.98 -17.74,11.69 -30.43,17.01l0 1.93c9.57,4.18 17.53,9.7 23.78,16.67 6.31,6.91 12.02,15.74 17.07,26.37l12.22 26.44c5.45,11.83 10.89,20.66 16.27,26.58 5.39,5.91 11.76,9.5 19.2,10.83l0 12.82 -74.93 0c-7.57,-10.36 -16.07,-25.84 -25.51,-46.3l-15.21 -33.28c-4.52,-9.9 -8.44,-16.87 -11.62,-21.06 -3.26,-4.12 -6.65,-6.98 -10.03,-8.57 -3.45,-1.53 -8.77,-2.33 -15.87,-2.33l-11.29 0 0 62.71c0,9.7 0.47,16.54 1.33,20.39 0.93,3.93 2.73,7.05 5.32,9.37 2.59,2.32 7.38,4.38 14.34,6.24l0 12.82zm-20.99 -242.47l0 108.15 19.27 0c10.36,0 18.93,-1.39 25.71,-4.12 6.71,-2.79 12.09,-6.71 16,-11.69 3.99,-4.99 6.71,-10.89 8.17,-17.61 1.53,-6.77 2.26,-14.15 2.26,-22.18 0,-17.67 -4.12,-30.89 -12.42,-39.73 -8.31,-8.84 -20.66,-13.22 -37,-13.22 -11.16,0 -18.47,0.13 -21.99,0.39zm358.23 40.66c2,-5.45 3.53,-10.56 4.59,-15.41 1.13,-4.78 1.66,-9.83 1.66,-15.14 0,-6.38 -1.66,-11.23 -4.98,-14.61 -3.26,-3.39 -8.37,-5.32 -15.28,-5.85l0 -12.82 83.9 0 0 12.82c-4.92,0.79 -9.1,2.39 -12.55,4.78 -3.46,2.39 -6.51,5.85 -9.3,10.3 -2.8,4.52 -6.12,11.82 -9.83,21.93l-81.58 217.23 -44.97 0 -64.24 -218.03c-2.79,-9.7 -5.25,-16.61 -7.18,-20.73 -1.92,-4.05 -4.45,-7.37 -7.57,-9.9 -3.13,-2.53 -7.44,-4.39 -13.02,-5.58l0 -12.82 107.62 0 0 12.82c-6.78,0.79 -11.76,2.66 -15.01,5.65 -3.26,2.99 -4.85,7.24 -4.85,12.69 0,4.25 0.4,8.44 1.13,12.55 0.79,4.06 2.46,10.56 4.91,19.53l38.53 139.77 48.03 -139.17zm216.01 119.5l-83.11 0 -6.38 18.47c-1.86,5.18 -3.32,10.23 -4.52,15.08 -1.13,4.85 -1.73,10.03 -1.73,15.47 0,12.69 6.71,19.53 20.26,20.46l0 12.82 -83.1 0 0 -12.82c4.79,-0.53 8.97,-2.26 12.62,-5.11 3.65,-2.86 6.91,-6.71 9.9,-11.63 2.99,-4.98 6.18,-12.02 9.57,-21.25l81.18 -216.23 51.95 0 64.24 218.03c2.86,9.7 5.25,16.61 7.18,20.73 1.93,4.05 4.45,7.37 7.57,9.9 3.13,2.53 7.51,4.39 13.09,5.58l0 12.82 -107.49 0 0 -12.82c6.78,-0.79 11.76,-2.66 15.01,-5.65 3.26,-2.99 4.85,-7.24 4.85,-12.69 0,-3.99 -0.46,-8.51 -1.32,-13.42 -0.94,-4.91 -2.4,-11.16 -4.52,-18.66l-5.25 -19.07zm-75.66 -22.78l70.02 0 -31.09 -109.55 -38.92 109.55zm248.09 105.09l0 -12.82c5.45,-0.93 9.77,-2.12 12.95,-3.65 3.19,-1.46 5.59,-3.59 7.11,-6.32 1.6,-2.72 2.53,-6.18 2.93,-10.43 0.4,-4.19 0.6,-9.43 0.6,-15.61l0 -194.04 -15.75 0c-7.84,0 -13.75,0.86 -17.93,2.72 -4.12,1.8 -7.78,4.65 -10.83,8.57 -2.99,3.86 -5.65,9.1 -7.84,15.61 -2.19,6.58 -4.05,12.75 -5.45,18.6l-26.7 0 0 -68.29 229.11 0 0 68.29 -26.7 0c-2.46,-8.84 -4.39,-15.27 -5.85,-19.46 -1.4,-4.12 -2.99,-7.64 -4.72,-10.56 -1.8,-2.92 -3.66,-5.38 -5.58,-7.31 -1.93,-1.93 -3.99,-3.52 -6.25,-4.72 -2.2,-1.13 -4.92,-1.99 -8.24,-2.59 -3.33,-0.6 -7.64,-0.86 -12.95,-0.86l-14.02 0 0 194.04c0,6.85 0.2,12.09 0.6,15.61 0.4,3.59 1.07,6.51 2.13,8.7 1.06,2.19 2.32,3.98 3.79,5.31 1.53,1.4 3.59,2.59 6.24,3.72 2.66,1.13 6.25,2 10.83,2.66l0 12.82 -107.49 0zm246.96 -65.57c3.26,15.41 8.7,26.91 16.27,34.54 7.58,7.58 18.74,11.36 33.41,11.36 7.64,0 14.48,-1.27 20.6,-3.86 6.11,-2.66 11.03,-6.84 14.68,-12.55 3.72,-5.78 5.58,-13.02 5.58,-21.72 0,-8.04 -1.53,-15.01 -4.52,-20.93 -2.99,-5.91 -7.78,-11.49 -14.35,-16.87 -6.64,-5.32 -15.87,-10.96 -27.64,-16.87 -10.16,-5.12 -19.26,-10.36 -27.5,-15.81 -8.17,-5.45 -15.14,-11.42 -20.86,-18 -5.78,-6.51 -10.3,-13.68 -13.48,-21.46 -3.12,-7.84 -4.72,-16.53 -4.72,-26.3 0,-15.95 3.92,-29.5 11.82,-40.66 7.91,-11.16 19.4,-19.66 34.34,-25.44 15.01,-5.72 32.35,-8.64 52.08,-8.64 11.56,0 22.58,0.59 33.08,1.86 10.5,1.19 22.53,3.39 36.01,6.51l0 56.46 -26.64 0c-2.46,-10.3 -5.65,-18.4 -9.43,-24.45 -3.86,-6.04 -8.64,-10.5 -14.35,-13.35 -5.71,-2.86 -12.88,-4.26 -21.59,-4.26 -7.37,0 -14.01,1.27 -19.86,3.86 -5.85,2.66 -10.43,6.51 -13.81,11.62 -3.33,5.12 -5.05,11.29 -5.05,18.6 0,7.51 1.46,14.01 4.38,19.53 2.93,5.51 7.84,10.89 14.68,16.14 6.91,5.25 16.87,11.29 29.96,18 16.01,8.31 28.57,16.47 37.67,24.45 9.17,7.97 15.94,16.67 20.26,26.04 4.32,9.43 6.51,20.39 6.51,32.82 0,15.94 -3.65,29.83 -11.09,41.59 -7.37,11.69 -18.13,20.72 -32.28,27.04 -14.15,6.31 -30.49,9.43 -49.03,9.43 -13.28,0 -27.04,-0.73 -41.38,-2.26 -14.35,-1.46 -27.77,-3.65 -40.39,-6.51l0 -59.92 26.64 0zm424.67 13.82c5.05,7.77 9.3,13.95 12.75,18.53 3.45,4.65 6.45,8.24 9.04,10.83 2.59,2.59 5.18,4.59 7.71,5.92 2.52,1.39 5.85,2.66 10.03,3.85l0 12.62 -105.49 0 0 -12.82c4.39,-0.66 7.38,-1.73 8.97,-3.25 1.53,-1.47 2.33,-3.46 2.33,-5.92 0,-2.06 -0.33,-4.12 -0.86,-6.11 -0.6,-2.06 -2,-4.99 -4.19,-8.9 -2.26,-3.85 -6.71,-11.03 -13.42,-21.39l-29.83 -45.9c-3.59,-5.59 -6.78,-9.97 -9.43,-13.09 -2.65,-3.12 -5.31,-5.31 -7.97,-6.71 -2.66,-1.33 -6.31,-1.99 -10.96,-1.99l-3.92 0 0 77.25c0,4.52 0.13,8.7 0.4,12.62 0.27,3.92 0.73,7.11 1.53,9.57 0.8,2.46 1.93,4.52 3.39,6.18 1.53,1.73 3.59,3.19 6.18,4.39 2.59,1.26 5.78,2.32 9.5,3.25l0 12.82 -102.16 0 0 -12.82c4.85,-1.33 8.64,-2.72 11.42,-4.18 2.79,-1.53 4.85,-3.59 6.18,-6.25 1.39,-2.66 2.26,-6.05 2.66,-10.1 0.4,-4.12 0.59,-9.3 0.59,-15.48l0 -167.8c0,-6.12 -0.19,-11.23 -0.53,-15.34 -0.26,-4.19 -1.13,-7.51 -2.52,-10.16 -1.33,-2.59 -3.39,-4.66 -6.18,-6.32 -2.79,-1.59 -6.65,-3.05 -11.62,-4.38l0 -12.82 102.16 0 0 12.82c-5.45,1.46 -9.43,2.99 -11.96,4.72 -2.52,1.66 -4.39,3.65 -5.65,5.98 -1.19,2.39 -2.13,5.31 -2.59,8.97 -0.53,3.65 -0.8,9.17 -0.8,16.54l0 69.29 4.12 0c5.92,0 10.7,-0.67 14.15,-1.93 3.52,-1.33 7.11,-3.65 10.83,-7.04 3.72,-3.33 10.83,-11.23 21.39,-23.59 10.56,-12.42 18.27,-21.99 22.99,-28.63 4.72,-6.71 7.97,-12.22 9.7,-16.54 1.8,-4.39 2.66,-8.7 2.66,-12.95 0,-4.52 -1.53,-8.11 -4.59,-10.7 -3.05,-2.59 -7.37,-3.99 -12.95,-4.12l0 -12.82 99.45 0 0 13.22c-4.92,0.93 -9.1,2.26 -12.62,4.12 -3.52,1.79 -7.51,4.72 -12.09,8.84 -4.52,4.12 -10.3,10.1 -17.27,18l-58.39 65.37 67.9 104.36z"/>
   <g>
    <path class="fil1 str0" d="M77.01 58.85l-73.52 134.06 99.47 224.88c367.6,-132.62 663.13,-56.22 839,12.97l103.8 -223.45 -73.53 -135.51 -128.11 53.53 -92.45 -103.98 -122.53 70.64 -105.24 -87.94 -108.51 87.94 -120.71 -77.85 -86.49 108.31 -131.19 -63.62z"/>
    <path class="fil2 str1" d="M257.11 362.67c64.33,-14.23 126.98,-22.4 187.52,-25.57l-11.54 -224.92 -135.51 -85.06 -95.15 115.33 54.68 220.22z"/>
    <path class="fil3 str2" d="M765.99 366.39c59.54,14.12 117.95,33.75 168.76,54.29l98.03 -213.36 -64.87 -122.53 -142.71 54.78 -59.21 226.82z"/>
    <path class="fil4 str3" d="M438.85 279.41c-58.39,-2.89 -113.88,-0.72 -203.62,30.93l-12.62 -59.77c59.82,-25.94 131.9,-38.2 214.08,-32.43l2.16 61.26z"/>
    <polygon class="fil5 str4" points="964.1,212.58 939.58,207.7 917.16,225.31 910.24,198.57 883.97,187.42 905.58,167.81 901.75,142.92 927.35,150.46 946.97,135.54 953.47,159.34 978.67,171.7 961.2,188.09 "/>
    <path class="fil4 str3" d="M431.64 163.36c-54.78,-4.32 -124.7,-5.05 -214.07,29.55l-13.69 -56.22c43.24,-20.18 131.91,-42.53 222,-28.83l5.76 55.51z"/>
    <path class="fil3 str2" d="M432.37 337.82c63.21,-4 124.17,-2.52 182.39,3.24l20.14 -231.76 -111 -92.26 -107.69 83.45c0,0 13.99,237.46 16.15,237.33z"/>
    <path class="fil5 str5" d="M448.23 101.37c-4.32,3.6 12.97,15.85 7.93,18.74l-9.37 -2.89 1.44 12.97 -8.65 -2.88 0.72 13.69 -7.21 7.21 7.21 2.16 0 7.93 5.04 1.45 0 6.49 10.1 -2.16 1.44 10.81 5.76 -3.6 3.61 4.32 5.76 6.49 5.76 -6.49 3.6 -4.32 5.77 3.6 1.44 -10.81 10.1 2.16 0 -6.49 5.04 -1.45 0 -7.93 7.21 -2.16 -7.21 -7.21 0.72 -13.69 -8.65 2.88 1.44 -12.97 -9.37 2.89c-5.05,-2.89 12.25,-15.14 7.93,-18.74l-13.69 9.37 -10.1 -12.98 -9.37 11.54 -14.41 -7.93z"/>
    <path class="fil6 str6" d="M457.6 128.04c-1.45,1.45 15.14,13.7 15.14,-4.32 0,5.77 6.48,15.86 15.85,3.61"/>
    <path class="fil6 str6" d="M467.69 146.06c0,0 3.61,9.37 10.09,0"/>
    <line class="fil6 str6" x1="472.74" y1="149.66" x2="472.74" y2= "156.15" />
    <path class="fil6 str6" d="M464.09 156.15c8.65,7.21 16.58,0 16.58,0"/>
    <path class="fil6 str6" d="M460.48 136.33c0,-1.79 1.61,-3.24 3.6,-3.24 1.98,0 3.6,1.45 3.6,3.24 0,1.79 -1.62,3.24 -3.6,3.24 -1.99,0 -3.6,-1.45 -3.6,-3.24z"/>
    <path class="fil6 str6" d="M476.83 136.33c0,-1.79 1.62,-3.24 3.6,-3.24 1.99,0 3.6,1.45 3.6,3.24 0,1.79 -1.61,3.24 -3.6,3.24 -1.98,0 -3.6,-1.45 -3.6,-3.24z"/>
    <path class="fil6 str6" d="M449.67 141.01c0,0 -2.88,3.6 5.77,8.65"/>
    <path class="fil6 str6" d="M494.36 142.46c0,0 2.88,3.6 -5.77,8.65"/>
    <path class="fil5 str5" d="M544.81 102.28c-4.32,3.61 12.97,15.86 7.93,18.75l-9.37 -2.89 1.45 12.97 -8.65 -2.89 0.72 13.7 -7.21 7.21 7.21 2.16 0 7.93 5.05 1.44 0 6.49 10.09 -2.16 1.44 10.81 5.77 -3.6 3.6 4.32 5.76 6.49 5.76 -6.49 3.6 -4.32 5.77 3.6 1.44 -10.81 10.09 2.16 0 -6.49 5.05 -1.44 0 -7.93 7.2 -2.16 -7.2 -7.21 0.72 -13.7 -8.64 2.89 1.45 -12.97 -9.37 2.89c-5.05,-2.89 12.25,-15.14 7.93,-18.75l-13.7 9.37 -10.09 -12.97 -9.37 11.54 -14.42 -7.93z"/>
    <path class="fil6 str6" d="M554.18 128.95c-1.45,1.45 15.14,13.7 15.14,-4.32 0,5.77 6.49,15.85 15.85,3.6"/>
    <path class="fil6 str6" d="M564.27 146.98c0,0 3.6,9.37 10.09,0"/>
    <line class="fil6 str6" x1="569.32" y1="150.58" x2="569.32" y2= "157.06" />
    <path class="fil6 str6" d="M560.67 157.06c8.65,7.2 16.58,0 16.58,0"/>
    <path class="fil6 str6" d="M557.07 137.24c0,-1.8 1.6,-3.24 3.6,-3.24 1.99,0 3.6,1.45 3.6,3.24 0,1.78 -1.61,3.24 -3.6,3.24 -2,0 -3.6,-1.45 -3.6,-3.24z"/>
    <path class="fil6 str6" d="M573.41 137.24c0,-1.8 1.61,-3.24 3.61,-3.24 1.99,0 3.6,1.45 3.6,3.24 0,1.78 -1.61,3.24 -3.6,3.24 -2,0 -3.61,-1.45 -3.61,-3.24z"/>
    <path class="fil6 str6" d="M546.26 141.93c0,0 -2.89,3.6 5.76,8.65"/>
    <path class="fil6 str6" d="M590.94 143.37c0,0 2.89,3.61 -5.76,8.65"/>
    <path class="fil5 str5" d="M497.96 191.13c-4.32,3.61 12.97,15.86 7.93,18.74l-9.37 -2.88 1.44 12.97 -8.65 -2.88 0.72 13.69 -7.22 7.21 7.22 2.16 0 7.93 5.04 1.45 0 6.49 10.09 -2.16 1.45 10.81 5.76 -3.6 3.6 4.32 5.77 6.49 5.76 -6.49 3.6 -4.32 5.77 3.6 1.44 -10.81 10.1 2.16 0 -6.49 5.04 -1.45 0 -7.93 7.21 -2.16 -7.21 -7.21 0.72 -13.69 -8.65 2.88 1.44 -12.97 -9.37 2.88c-5.04,-2.88 12.26,-15.13 7.93,-18.74l-13.7 9.37 -10.09 -12.97 -9.37 11.54 -14.41 -7.93z"/>
    <path class="fil6 str6" d="M507.33 217.8c-1.44,1.45 15.14,13.7 15.14,-4.32 0,5.76 6.49,15.85 15.86,3.6"/>
    <path class="fil6 str6" d="M517.42 235.82c0,0 3.61,9.37 10.09,0"/>
    <line class="fil6 str6" x1="522.46" y1="239.43" x2="522.46" y2= "245.91" />
    <path class="fil6 str6" d="M513.82 245.91c8.64,7.22 16.58,0 16.58,0"/>
    <path class="fil6 str6" d="M510.21 226.1c0,-1.8 1.61,-3.25 3.61,-3.25 1.98,0 3.6,1.45 3.6,3.25 0,1.78 -1.62,3.24 -3.6,3.24 -2,0 -3.61,-1.45 -3.61,-3.24z"/>
    <path class="fil6 str6" d="M526.56 226.1c0,-1.8 1.61,-3.25 3.6,-3.25 1.99,0 3.6,1.45 3.6,3.25 0,1.78 -1.61,3.24 -3.6,3.24 -1.99,0 -3.6,-1.45 -3.6,-3.24z"/>
    <path class="fil6 str6" d="M499.4 230.77c0,0 -2.88,3.61 5.76,8.66"/>
    <path class="fil6 str6" d="M544.09 232.22c0,0 2.89,3.6 -5.76,8.65"/>
    <path class="fil3 str2" d="M107.29 406.27c51.09,-18.48 101.38,-32.9 150.69,-43.78 2.58,-0.56 -48.34,-228.68 -48.34,-228.68l-128.3 -59.11 -66.31 118.21 92.26 213.36z"/>
    <polygon class="fil5 str4" points="135.41,231.83 114.5,218.14 87.11,226.07 90.71,198.67 70.53,178.5 97.92,168.4 103.69,143.9 124.59,160.47 148.38,153.99 145.49,178.5 164.23,199.4 141.89,208.05 "/>
    <path class="fil7 str7" d="M211.09 240.48c-2.17,22.35 -44.69,80.73 -129.75,46.85 82.89,71.36 145.6,-1.44 129.75,-46.85z"/>
    <path class="fil4 str8" d="M956.41 373.18l38.48 -84.03c-27.64,-16.71 -154.86,-49.71 -191.62,-53.32 -2.17,10.1 -13.88,74.53 -13.88,74.53 32.69,0 131.82,44.13 167.02,62.82z"/>
    <path class="fil1" d="M951.87 383.44l10.5 -21.69c-42.22,-18.91 -126.36,-54.23 -172.49,-57.83l-5.76 22.34c54.05,7.21 155.69,49.01 167.75,57.18z"/>
    <path class="fil1" d="M989.96 301.71l10.64 -24.33c-27.64,-16.71 -149.45,-62.84 -186.22,-66.44 -2.16,10.09 -6.49,27.39 -6.49,27.39 32.7,0 146.86,44.69 182.06,63.38z"/>
    <path class="fil8 str5" d="M843.93 270.76c1.22,1.08 5.65,-4.56 7.22,-3.61 4.88,2.99 8.16,12.09 13.69,14.42 13.34,5.61 23.14,0.17 36.76,5.04 14.98,5.37 23.28,10.44 34.59,21.63 0,0 17.31,-2.16 33.16,2.88l-0.72 8.65c-15.86,-5.05 -28.83,-2.16 -28.83,-2.16l5.03 7.93 2.16 17.3 -11.53 0.72 -0.72 -10.09 -12.25 -9.37c-16.58,-2.17 -31.71,0.72 -31.71,0.72l1.44 -8.65c7.93,-1.45 18.02,-6.49 18.02,-6.49 0,0 -24.5,-23.79 -54.05,-2.89 -34.6,5.05 -25.95,-5.77 -25.95,-5.77l10.81 -6.48c-29.55,5.05 -23.79,-8.65 -23.79,-8.65l23.07 0 -15.14 -10.81c0,0 12.97,-2.16 16.58,-9.37 1.74,1.94 0.51,3.59 2.16,5.05z"/>
    <path class="fil7 str9" d="M910.25 309.68c0,0 -12.42,-12.07 -30.27,-11.46 0,15.06 30.27,11.46 30.27,11.46z"/>
    <path class="fil1 str7" d="M609.77 340.57c62.64,5.92 122.14,16.81 177.92,31.19l54.09 -237.05 -92.98 -101.83 -121.3 70.09 -17.73 237.59z"/>
    <path class="fil2 str1" d="M609.77 340.57c62.64,5.92 122.14,16.81 177.92,31.19l54.09 -237.05 -92.98 -101.83 -121.3 70.09 -17.73 237.59z"/>
    <path class="fil4 str10" d="M664.46 163.36c10.69,-8.17 17.56,-14.39 31,-15.14 25.95,-1.45 9.37,11.54 59.82,5.76 0,15.14 -35.32,10.81 -35.32,10.81 33.88,23.07 27.4,14.41 45.41,13.7 -8.04,6.85 -14,10.43 -24.5,11.54 -13.7,1.44 -28.83,-23.07 -46.13,-15.14l-7.2 -7.2 -9.37 -0.72 -3.61 -4.32 -10.09 0.72z"/>
    <path class="fil6 str6" d="M688.24 150.38c0,0 11.54,6.49 12.98,20.9"/>
    <path class="fil6 str6" d="M703.74 149.3c0,0 7.57,9.73 9.01,24.14"/>
    <path class="fil6 str6" d="M676.35 156.51c0,0 15.5,6.12 19.1,16.22"/>
    <path class="fil6 str6" d="M721.41 156.15c0,0 1.23,2.45 2.33,6.44"/>
    <path class="fil6 str6" d="M725.32 171.26c0.28,3.11 0.25,6.54 -0.31,10.12"/>
    <path class="fil6 str6" d="M739.13 178.48c0.28,3.11 0.25,6.54 -0.32,10.12"/>
    <path class="fil6 str6" d="M730.77 155.43c0.28,3.12 3.45,4.36 2.89,7.93"/>
    <path class="fil9 str11" d="M664.46 163.36l-5.76 5.76 -12.97 -7.21c-7.93,15.86 5.76,18.75 5.76,18.75l-10.08 20.9 6.47 6.49 10.82 -1.44c0,0 -10.1,10.81 1.44,15.85 0,0 -23.06,8.65 -8.65,19.46 0,0 10.1,9.37 -8.65,41.09l10.1 5.05c0,0 5.76,-18.75 15.13,-22.35l8.66 -0.72c0,0 -0.72,15.85 -7.22,20.9 0,0 2.89,15.13 -5.76,21.62l14.42 5.04 0.72 -15.13 7.93 -7.21 0 -7.93 9.37 -9.37 27.39 0.72c0,0 1.45,9.37 -7.93,13.7l-1.77 9.37 8.26 3.6c10.09,-7.93 8.64,-13.7 8.64,-13.7 7.93,-4.32 10.81,-12.97 10.81,-12.97l10.09 6.49c0,0 2.17,12.98 -7.2,28.12l10.09 4.32 4.33 -2.88 0 -5.05 14.41 -21.62 7.22 -2.16 -8.66 -5.04 0 -4.33 7.21 -12.97 -6.49 3.61 0.72 -13.69c13.7,-11.54 7.22,-16.58 7.22,-16.58l6.48 -12.97 -7.21 2.88 2.89 -13.69 -10.81 7.21c0,0 -12.25,-8.65 -29.55,-2.89 -14.41,-0.72 -28.83,0.72 -28.83,0.72 -23.79,-0.72 -20.18,-10.09 -20.18,-10.09l3.59 -6.48 -7.93 -3.61c16.58,-5.76 9.37,-9.37 9.37,-9.37l5.05 -2.88 -7.21 0 -1.44 -5.77 -7.2 -7.2 -9.37 -0.72 -3.61 -4.32 -10.09 0.72z"/>
    <path class="fil4 str10" d="M655.1 294.54c-11.54,7.93 -18.74,0.72 -18.74,0.72l6.48 -12.26 10.1 5.05c0,0 -8.66,4.32 2.16,6.49z"/>
    <path class="fil4 str10" d="M676.72 319.05c0,0 -12.26,5.76 -19.47,0 -2.16,-4.33 6.49,-11.54 6.49,-11.54l14.42 5.04c0,0 -7.21,1.44 -1.44,6.49z"/>
    <path class="fil4 str10" d="M721.41 308.24c0,0 -8.65,2.88 -15.86,-0.72 -3.6,-7.21 8.32,-10.81 8.32,-10.81l8.26 3.6c0,0 -5.77,3.61 -0.72,7.93z"/>
    <path class="fil4 str10" d="M750.23 321.21c0,0 -7.2,3.61 -13.69,-0.72 -3.59,-7.21 7.93,-12.25 7.93,-12.25l10.09 4.32c0,0 -4.33,2.16 -4.33,8.65z"/>
    <path class="fil6 str6" d="M673.83 209.49c0,0 7.22,4.32 3.6,14.42"/>
    <path class="fil6 str6" d="M723.56 231.11c0,0 7.93,0.72 7.93,9.37"/>
    <path class="fil6 str6" d="M704.82 232.56c0,0 6.49,2.16 5.98,10.81"/>
    <path class="fil6 str6" d="M688.24 226.79c0,0 -2.88,6.49 0.73,15.14"/>
    <path class="fil6 str6" d="M758.17 227.51c0,0 -7.94,-2.88 -12.26,2.89"/>
    <path class="fil6 str6" d="M708.43 251.29c0,0 -0.71,5.76 5.77,11.54"/>
    <path class="fil6 str6" d="M673.83 233.28c0,0 -7.92,7.2 -5.03,12.97"/>
    <path class="fil6 str6" d="M677.43 249.13c0,0 -7.93,1.44 -4.32,10.09"/>
    <path class="fil6 str6" d="M750.95 238.32c0,0 4.33,9.37 14.42,0.72"/>
    <path class="fil6 str6" d="M748.8 251.29c0,0 0,7.93 8.65,12.97"/>
    <path class="fil6 str6" d="M696.9 256.34c0,0 -4.32,9.37 5.76,14.41"/>
    <path class="fil6 str6" d="M723.56 246.97c0,0 -4.32,6.49 -0.72,15.14"/>
    <path class="fil6 str6" d="M734.38 251.29c0,0 -5.76,7.2 0.72,15.14"/>
    <path class="fil6 str6" d="M726.45 272.92c0,0 6.49,4.32 11.54,-1.45"/>
    <path class="fil6 str6" d="M660.86 252.02c0,0 -2.89,6.48 0.72,15.13"/>
    <path class="fil6 str6" d="M660.86 188.58c0,0 7.93,-1.44 11.53,1.45"/>
    <path class="fil6 str6" d="M663.02 192.19c0,0 4.33,2.89 10.09,-0.72"/>
    <path class="fil6 str6" d="M667.35 187.67c0,0 -2.89,1.3 0.71,6.68"/>
    <path class="fil1" d="M947.72 441.05l0 531.17c0,232.76 -171.58,395.39 -426.73,395.39 -238.72,0 -425.23,-171.59 -425.23,-399.87l0 -526.69 851.96 0z"/>
    <path class="fil1" d="M933.32 456.72l0 513.2c0,224.89 -165.78,382.02 -412.28,382.02 -230.66,0 -410.85,-165.78 -410.85,-386.35l0 -508.88 823.14 0z"/>
    <path class="fil10" d="M767.51 1167.39l132.44 0c-30.93,56.28 -75.99,102.84 -132.44,136.86l0 -136.86zm-165.76 194.49c-25.84,3.78 -52.79,5.74 -80.75,5.74 -28.17,0 -55.62,-2.42 -82.12,-7.01l0 -193.21 0 0 162.87 0 0 194.49zm-328.67 -66.02c-50.75,-33.35 -92.92,-77.08 -123.4,-128.47l123.4 0 0 128.47zm330.12 -305.78l0 0 162.9 0 0 171.55 -162.9 0 0 -171.55zm-330.12 0l0 0 162.9 0 0 171.55 -162.9 0 0 -171.55zm497.34 -177.28l0 0 162.9 0 0 171.55 -162.9 0 0 -171.55zm-331.57 0l0 0 162.9 0 0 171.55 -162.9 0 0 -171.55zm-328.67 0l0 0 162.9 0 0 171.55 -162.9 0 0 -171.55zm493.02 -177.32l0 0 162.9 0 0 171.55 -162.9 0 0 -171.55zm-328.68 0l0 0 162.9 0 0 171.55 -162.9 0 0 -171.55zm164.36 -178.76l0 0 162.9 0 0 171.55 -162.9 0 0 -171.55zm331.54 0l0 0 162.9 0 0 171.55 -162.9 0 0 -171.55zm-660.24 0l0 0 162.9 0 0 171.55 -162.9 0 0 -171.55z"/>
    <path class="fil6 str12" d="M767.51 1167.39l132.44 0m-132.44 136.86l0 -136.86"/>
    <path class="fil6 str12" d="M438.88 1167.39l162.87 0 0 194.49m-162.87 -1.27l0 -193.21"/>
    <polyline class="fil6 str12" points="603.2,990.08 766.09,990.08 766.09,1161.62 603.2,1161.62 603.2,990.08 "/>
    <polyline class="fil6 str12" points="273.08,990.08 435.97,990.08 435.97,1161.62 273.08,1161.62 273.08,990.08 "/>
    <polyline class="fil6 str12" points="770.42,812.79 933.32,812.79 933.32,984.34 770.42,984.34 770.42,812.79 "/>
    <polyline class="fil6 str12" points="438.85,812.79 601.75,812.79 601.75,984.34 438.85,984.34 438.85,812.79 "/>
    <polyline class="fil6 str12" points="110.18,812.79 273.08,812.79 273.08,984.34 110.18,984.34 110.18,812.79 "/>
    <polyline class="fil6 str12" points="603.2,635.48 766.09,635.48 766.09,807.02 603.2,807.02 603.2,635.48 "/>
    <polyline class="fil6 str12" points="274.52,635.48 437.42,635.48 437.42,807.02 274.52,807.02 274.52,635.48 "/>
    <polyline class="fil6 str12" points="438.88,456.72 601.79,456.72 601.79,628.26 438.88,628.26 438.88,456.72 "/>
    <polyline class="fil6 str12" points="770.42,456.72 933.32,456.72 933.32,628.26 770.42,628.26 770.42,456.72 "/>
    <polyline class="fil6 str12" points="110.18,456.72 273.08,456.72 273.08,628.26 110.18,628.26 110.18,456.72 "/>
    <polyline class="fil6 str12" points="149.68,1167.39 273.08,1167.39 273.08,1295.86 "/>
    <line class="fil6 str13" x1="947.72" y1="441.05" x2="947.72" y2= "972.22" />
    <path class="fil6 str13" d="M947.72 972.22c0,232.76 -171.58,395.39 -426.73,395.39 -238.72,0 -425.23,-171.59 -425.23,-399.87"/>
    <polyline class="fil6 str13" points="95.77,967.74 95.77,441.05 947.72,441.05 "/>
   </g>
  </g>
 </g>
</svg>
