<?xml version="1.0" encoding="UTF-8"?>
<!DOCTYPE svg PUBLIC "-//W3C//DTD SVG 1.1//EN" "http://www.w3.org/Graphics/SVG/1.1/DTD/svg11.dtd">
<!-- Creator: CorelDRAW 2019 (64-Bit) -->
<svg xmlns="http://www.w3.org/2000/svg" xml:space="preserve" width="1991px" height="571px" version="1.1" style="shape-rendering:geometricPrecision; text-rendering:geometricPrecision; image-rendering:optimizeQuality; fill-rule:evenodd; clip-rule:evenodd"
viewBox="0 0 2086.33 598.23"
 xmlns:xlink="http://www.w3.org/1999/xlink"
 xmlns:xodm="http://www.corel.com/coreldraw/odm/2003">
 <defs>
  <style type="text/css">
   <![CDATA[
    .fil1 {fill:none}
    .fil0 {fill:#FEFEFE}
   ]]>
  </style>
 </defs>
 <g id="Layer_x0020_1">
  <metadata id="CorelCorpID_0Corel-Layer"/>
  <path class="fil0" d="M215.36 483.84c-0.77,-0.29 -6.48,0.51 -4.53,-9.64 1.01,-5.25 4.92,-4.58 8.52,-2.25 0.6,6.49 -0.09,2.31 -1.95,5.99 -1.4,2.79 0.65,1.77 -2.04,5.9zm-14.4 -6.73c-4.65,-3.35 -6.83,-12.2 0.9,-14.62 5.37,3.66 1.73,8.13 -0.9,14.62zm122.61 28.78c1.46,-3.74 1.71,-3.53 4.41,-5.17 0.79,-0.47 2.11,-1.33 2.74,-1.43 0.23,-0.04 0.55,-0.12 0.79,-0.12 7.12,0.18 3.76,9.72 -7.94,6.72zm261.36 8.94c7.59,-9 21.51,12.13 1.35,3.98l-1.35 -3.98zm-1.98 -37.88c2.54,-0.41 4.4,-0.47 6.77,2.17 4,4.48 -0.07,6.71 -0.14,6.79 -5.1,-0.12 -6.62,-8.92 -6.63,-8.96zm74.94 24.66c-4.9,-4.26 -2.05,-8.08 1.11,-11.46 3.52,0.54 6.28,1.62 8.33,3.33 -1.04,3.78 -8.11,7.89 -9.44,8.13zm-78.22 -41.81c9.41,0.13 16.78,2.47 9.2,12.7l-1.2 -1.41c-2.61,-4.56 -0.42,-3.74 -5.3,-8.21l-1.25 -1.05c-1.22,-1.28 -0.77,-0.88 -1.45,-2.03zm209.78 31.97c5.2,0.98 7.26,1.06 10.85,3.76 0.32,4.6 -0.65,6.97 -2.45,12.06 -5.43,-2.74 -7.72,-10.54 -8.4,-15.82zm658.35 86.65c-3.42,9.53 -12.06,9.35 -13.3,7.02 -1.06,-1.99 4.32,-8.32 13.3,-7.02zm-733.57 -217.1c3.02,-1.45 9.98,-2.02 14.28,-0.95 -3.15,10.65 -15.34,9.92 -14.28,0.95zm-371.75 -193.03c2.33,-5.18 4.73,-8.91 10.01,-5.02 -1.31,5.21 -4.58,6.2 -10.01,5.02zm-15.09 -20.88l-3.03 -4.68 -20.79 -0.41c-0.25,0 -3.07,0.11 -3.31,0.13 -7.39,0.67 -5.07,3.05 -5.54,25.74 -0.18,8.77 -0.37,17.63 -0.16,26.07 0.21,8.51 -0.57,46.03 0.53,50.19 5.6,1.16 2.11,-0.61 7.69,0 -2.71,7.57 -2.55,2.92 -8.13,5.6 -0.69,21.42 -0.22,43.06 -0.18,64.47 0.04,21.99 0.37,42.04 0.45,63.82 0.04,10.45 -0.3,21.32 -0.03,31.81 0.3,12.12 0.8,92.17 -0.95,98.63 -9.84,1.55 -65.41,1.33 -70.18,0.02 -1.65,-4.93 -0.03,-117.84 -0.91,-135.63 -0.97,-19.49 0.81,-46.55 0.23,-68.93 -0.19,-7.67 -0.29,-15.62 0.05,-23.25l-0.6 -56.06c-0.73,-10.12 1.78,-77.88 0.04,-80.88 -2.26,-3.91 -26.38,-1.48 -35.7,-1.66 -8.61,-0.16 -32.2,0.19 -38.52,-1.68 1.8,-13.9 -1.46,-49.11 0.73,-59.34 8,-1.02 121.45,-0.26 137.27,-0.14 10.96,0.08 77.43,-0.79 82.66,0.5 0.48,9.04 -0.57,19.51 -0.4,28.73l-0.52 22.08c-0.64,6.04 0.65,2 -0.02,7.75 -4.65,1.99 -16.88,1.69 -22.14,1.62 -20.9,-0.27 -14.55,0.26 -18.54,5.5zm1617.69 410.4c7.02,-4.05 15.83,8.99 19.31,13.77l-3.96 3.79c-0.36,-0.15 -16.62,-10.62 -15.35,-17.56zm-1853.65 -510.36c1.53,-3.95 7.57,-6.18 12.3,-4.61 -1.58,6.25 -6.01,7.29 -12.3,4.61zm1943.32 499.83c1.18,-5.56 5.55,-5.57 11.14,-3.85 6.59,10.66 -6.29,8.83 -11.14,3.85zm-1053 -296.26c-2.21,2.97 -1.98,2.53 -6.23,2.67 -2.83,0.1 -4.14,0.22 -6.84,0.14 -3.43,-0.1 -11.72,0.58 -12.81,-2.76 -2.98,-9.18 7.26,-1.42 19.31,-2.24 7.37,-0.5 6.34,1.93 6.57,2.19zm995.12 249.38c3.91,1.34 9.06,8.84 8.29,12.77 -6.16,-1.04 -9.94,-7.75 -8.29,-12.77zm82.6 16.89c-1.19,1.06 -8.01,7.59 -9.43,1.36 -0.99,-4.33 4.62,-2.75 8.58,-4.59 12.03,-5.59 17.09,7.12 0.85,3.23zm-37.03 -3.43c-3.35,3.09 -3.15,3.7 -9.31,2.04 2.79,-10.86 2.27,-0.87 4.29,-16.65 5.98,1.84 9.66,6.74 12.54,10.32 -3.56,2.33 -3.73,0.78 -7.52,4.29zm-5.07 -30.45c0,-0.06 -1.57,-3.16 4.06,-4.07 2.55,-0.41 6.86,0.07 8.07,2.37 1.87,3.53 -1.09,4.72 -4.13,4.68 -0.54,-0.01 -4.55,-0.72 -5.05,-0.91 -4.33,-1.57 -2.15,-1.22 -2.95,-2.07zm-14.93 -17.22c-0.89,0.55 -21.5,6.16 -18.06,-5.85 0.87,-3.05 2.27,-5.32 3.66,-7.45 13.92,2.05 6.62,5.51 11.24,10.23 2.39,2.44 1.24,-1.36 3.16,3.07zm-1364.93 -361.16c1.32,-4.67 3.04,-7.48 6.36,-10.51l8.08 3.76c-1.85,2.13 0.05,1.27 -3.58,2.66 -11.03,4.22 -4.21,4.38 -10.86,4.09zm1332.32 339.1c0.72,3.24 0.69,12.96 -5.9,6.84 -3,-2.78 -3.33,-9.26 5.9,-6.84zm-1333.1 -358.16c-3.69,15.99 -10.56,59.71 -13.27,79.13 -0.71,5.06 0.11,5.77 -1.53,12.54 -1.17,4.82 -2.22,9.56 -2.82,14.06 -4.7,35.25 -12.29,70.29 -17.46,105.66 -5.14,35.27 -11.84,69.62 -17.18,105.02 -3.24,21.42 -10.63,59.76 -12.94,79.68 -0.92,7.98 -2.1,18.58 -4.71,26.68l-32.14 0.75c-0.2,5.18 3.06,6.88 -0.46,9.61 -5.33,2.65 -6.09,-5.49 -6.46,-9.17 -6.5,-1.53 -26.8,-0.91 -33.35,-0.62l-33.94 -0.93c-4.85,-31.39 -13.83,-77.73 -17.38,-106.64 -2.22,-18.15 -6.77,-35.7 -9.16,-52.79 -7.4,-52.99 -17.87,-106.87 -25.81,-160.39l-8.97 -52.98c-1.58,-9.25 -2.86,-17.03 -4.34,-26.62 -0.86,-5.62 -4.55,-22.92 -3.75,-27.56 6.94,-1.95 22.87,-0.19 31.47,-0.42 -1.19,-3.77 -2.58,-3.15 -2.27,-6.89 6.02,-2.15 10.85,-0.51 6.6,4.47l-1.37 1.34c11.86,2.92 24.8,-1.12 37.06,1.76l13.28 85.96c4.8,27.81 9.24,57.63 13.55,85.6 1.38,8.9 25.43,167.95 27.98,171.56 3.79,-11.29 23.19,-150.77 26.87,-171.2 2.29,-12.68 6.23,-31.24 6.67,-42.76l13.67 -86.84c1.76,-11.62 3.21,-32.18 7.15,-43.09l56.71 -0.73c5.75,-0.03 15.88,-0.52 15.83,5.64 -3.1,1.42 -0.89,0.24 -4.79,0.05 -0.26,-0.02 -0.62,-0.01 -0.87,-0.02l-1.87 0.14zm1269.46 324.9c3.04,-0.34 6.4,3.29 8.4,5.09 3.8,3.43 11.73,10.42 11.76,15.76 -2.69,1.5 -5.47,2.01 -8.72,1.22 -2.78,-7.09 1.27,-6.97 -7.9,-9.44 -5.29,-1.43 -7.88,-2.17 -11.04,-5.7 1.08,-3.13 4.72,-6.63 7.5,-6.93zm46.87 14.63c-3.04,-3.37 -4.67,-3.95 -3.68,-8.45 3.5,-1.97 14.72,5.32 12.81,13.41 -5.21,-0.63 -6.15,-1.67 -9.13,-4.96zm-1165.59 -281.85c17.63,-65.59 87.79,-77.45 140.69,-63.33 52.26,13.95 64.74,54.51 67.11,98.48l-0.08 45.37c-3.2,1.04 -28.5,1.28 -33.28,1.32l-26.1 -0.19c-12.48,0.71 -6.26,-5.52 -7.96,-34.14 -0.91,-15.34 3.58,-46.07 -24.97,-52.79 -10.53,-2.48 -23.84,-1.07 -31.15,2.89 -9.43,5.11 -14.91,12.22 -16.93,27.74l-0.71 67.35c-0.55,9.89 0.85,21.75 0.2,32.61 5.5,-2.07 4.4,-3.87 8.12,-7.02 5.17,0.98 11.09,3.92 11.16,8.01 -4.35,1.89 -11.39,-0.94 -18.3,2.72 -1.4,7.81 -0.16,14.71 -0.57,22.07 -1.12,20.37 3.62,8.98 0.25,20.43 -1.44,4.9 -0.43,73.64 -0.47,85.59 -0.06,13.7 -0.54,31.33 8.11,38.8 3.5,-2.49 6.3,-8.61 9.02,-4.09 2.51,4.16 -2.63,4.46 -5.16,5.2l-2.97 1.07c12.37,9.53 28.24,13.12 42.62,8.11 24.72,-8.62 22.01,-31.13 21.95,-53.73 -0.03,-11.55 1.25,-59.23 -0.84,-64.08 -8,-1.75 -14.08,0.95 -15.68,0.88 -2.52,-0.12 -3.2,-1.62 -7.98,-1.58 -3.42,0.04 -3.42,0.67 -7.38,-0.24l-0.72 -45.56c0.35,-4.53 -1.38,-11.87 1.53,-14.47 4.59,-3.32 39.07,0.74 48.33,-1.31 8.4,-1.86 4.54,-0.6 13.47,0.73 5.86,0.88 26.81,-1.53 36.35,0.14 1.64,9.61 0.82,51.09 0.84,63.62l-0.01 64.4c0.9,73.98 -30.89,115.53 -108.75,115.05 -74.36,-0.46 -104.93,-43.88 -104.26,-112.74l0.05 -144.31c0.82,-32.88 -3.39,-83.72 4.47,-113zm1262.17 305.73c2.59,-6.38 6.85,-3.97 13.67,-4.25 5.7,-0.23 9.84,-2.77 14.43,0.7 -2.04,6.46 -0.99,1.81 -5.18,4.76 -3.06,2.17 -0.51,0.15 -2.34,3.22 -0.15,0.25 -0.29,0.56 -0.43,0.79l-1.52 2.09c-4.19,-1.65 -1.45,-0.63 -4.06,-2.85 -6.49,-5.51 -7.22,-2.01 -14.57,-4.46zm-60.94 -43.4c2.62,-2.83 5.79,-2.44 8.9,0.49 -1,4.86 -2.89,4.86 -7.61,3.49l-1.29 -3.98zm33.06 11.46c-3.36,-5.47 -4.25,-4.02 -6.24,-7.63 2.92,-1.39 9.52,-0.77 11.97,2.61 2.05,2.84 1.97,8.49 0.42,12.93 -3.92,-2.47 -3.99,-4.4 -6.15,-7.91zm-20.97 -13.67c0.84,-3.29 1.46,-4.16 4.69,-4.09 2.56,0.05 4.46,0.76 4.93,2.88 0.88,4.02 -5.79,5.55 -9.62,1.21zm-27.27 -32.35c-3.64,-16.11 16.5,-8.2 4.34,1.33l-4.34 -1.33zm32.89 0.3c3.34,-0.5 11.63,-0.4 15.8,1.08 5.71,2.03 5.45,6.89 4.18,12.79 -10.95,-3.11 -22.58,-6.04 -19.98,-13.87zm-845.79 -224.02c2.52,-2.06 3.22,-2 7.52,-0.73l2.51 4.56 -3.35 2.31 -5.23 -1.51 -1.45 -4.63zm-436.38 -115.22c3.1,-3.45 3.73,-2.86 9.37,-5.44 3.43,-1.57 5.09,-2.78 10.15,-1.39 1.08,2.06 2.35,3.74 1.43,6.64 -1.4,4.44 -17.16,1.19 -20.95,0.19zm1198.37 287.78c2.69,2.62 -0.93,12.23 -0.88,11.88 0.03,-0.14 -0.32,0.45 -0.49,0.66 -2.01,0.35 2,1.97 -2.51,0.02 -4.79,-2.07 -3.45,-19.69 3.88,-12.56zm-966.53 -255.49c-2.34,3.12 -1.67,3.1 -5.28,4.05 -3.09,-2.42 -3.78,-5.08 -2.98,-9.47 6.02,1.29 6.54,1.36 8.26,5.42zm719.96 163.01c4.93,-2.31 7.95,-0.71 9.87,3.77 -1.42,4.44 -3.55,5.08 -7.05,5.91 -3.73,-2.43 -4.56,-4.38 -2.82,-9.68zm315.71 76.51c0.91,-3.4 2.13,-4.38 5.66,-4.55 2.76,-0.14 6.79,0.72 7.91,2.87 4.21,8.09 -10.36,3.07 -13.57,1.68zm-798.64 -224.02l33.74 0.11c5.17,-0.01 11.5,0.09 17.07,-0.18 19.17,-0.95 16.98,-2.15 16.37,16.34 -0.2,5.91 0.64,9.73 0.42,14.99 -1.03,24.55 -0.25,68.92 -0.32,94.81 -0.06,20.95 0.06,42.23 -0.48,63.22 -0.13,4.74 0.33,10.16 0.23,15.23l0.96 31c0.41,3.47 -0.93,12.15 -0.88,16.93 0.21,20.33 -0.04,41.52 0.23,62.42 0.14,10.53 -0.26,20.98 -1.4,31.81 -6.42,61.21 -47.59,86.5 -105.04,86.95 -70.22,0.56 -102.83,-37.89 -106.41,-102.13 -0.35,-6.32 0.54,-10.92 0.55,-16.88l-0.79 -62.64c-1.04,-19.71 0.06,-41.92 -0.05,-62.61l0 -62.65c-0.82,-20.34 0.68,-42.04 -0.15,-62.48 -0.42,-10.35 0.35,-21.43 0.33,-32.23 0,-6.9 -1.29,-25.16 0.45,-31.39l52.87 -0.41c19.71,-0.15 18.36,-3.05 18.27,7.52l0 135.66c0.18,18.28 -0.51,36.25 0.12,53.95 0.65,18.36 -1.13,36.39 -0.08,54.15 0.5,8.37 -0.23,18.51 -0.55,27.28l0.18 27.21c0.37,16.94 -1.77,37.77 5.58,50.69 12.75,22.4 53.72,20.5 64.07,-2.43 6.08,-13.47 3.47,-41.39 4.3,-56.77 0.59,-10.86 0.39,-17.81 0.23,-27.71l0.18 -269.76zm-224.65 -52.24c-4.88,1.23 -7.92,-1.82 -12.03,-6.2 -3.05,-3.25 -7.28,-5.98 -3.77,-10.55 2.46,-0.47 -2.24,-1.31 2.69,-0.1l3.89 2.93c11.68,12.85 9.38,13.56 9.43,13.44 0.05,-0.11 -0.13,0.33 -0.21,0.48zm1020.2 258.34c2.81,-2 7.66,-1.52 12.43,-0.1l-2.73 6.36c-5.37,0.58 -10.47,-0.2 -9.7,-6.26zm34.3 -6.35c5.76,-1.03 5.48,6.13 1.15,6.73 -5.73,0.79 -8.1,-5.49 -1.15,-6.73zm-634.21 -199.23c1.77,6.34 0.76,13.43 0.92,21.47l-0.44 44.31c0.09,6.72 0.42,14.89 0.16,21.27 -0.67,16.44 0.66,52.77 -0.45,65.83 -0.75,8.84 0.84,32.45 0.64,42.9l-0.1 43.1c0.07,7.21 -0.08,14.31 -0.22,21.69l0.12 65.12c0.22,22.02 -1.35,12.26 5.79,17.86 -3.48,7.11 -5.43,-1.38 -5.81,7.68l0.59 53.61c-0.12,6.22 0.06,17.74 -0.77,22.35l-70.74 0.27c-1.26,-7.96 -0.61,-17.9 -0.74,-26.74l0.13 -294.59c0.3,-13.43 -1.58,-98.64 0.91,-106.55l70.01 0.42zm62.35 -0.07c3.54,-0.61 8.45,-0.25 12.36,-0.66 3.21,-0.34 8.9,0.04 12.04,0.12l74.57 -0.1c84.35,0.51 119.63,27.23 119.6,116.12l-0.13 124.72c-0.3,25.57 0.82,46.11 0.08,74.56 -0.08,3.05 0.64,5.99 0.72,10.26 0.2,11 -3.08,29.87 -6.34,40.69 -4.9,16.2 -15.97,31.84 -26.16,40.29 -22.69,18.83 -50.91,21.85 -87.15,21.63 -4.25,-0.03 -9.9,-0.8 -13.22,-0.45 -10.4,1.07 -78.68,1.57 -86.6,0.08l-0.35 -40.05c0.13,-7.24 0.32,-5.73 -3.2,-10.94 3.16,-5.83 3.35,-1.37 2.96,-10.17l0.24 -153.97c-1.04,-12.79 -0.22,-55.96 -0.15,-70.3 0.07,-15.38 -1.88,-132.89 0.73,-141.83zm539.06 147.38c-0.3,4.21 -0.52,1.14 -1.31,2.05 -0.66,0.18 0.64,1.34 -3.65,0.25 -1.79,-0.45 -2.19,-0.75 -3.14,-1.92 -5.4,-6.64 8.59,-7.32 8.1,-0.38zm56.48 -0.98c2.64,-8.46 9.71,-7.07 16.44,-3.53 1.64,0.86 1.29,0.88 2.03,1.67 -1.97,3.07 0.93,1.58 -3.94,2.37 -4.35,0.7 -10.14,0.68 -14.53,-0.51zm-575.5 -168.13c-3.11,1.91 -6.61,-1.66 -7.75,-3.41 -4.56,-6.98 -0.2,-7.15 -0.08,-7.22 4.03,-2.18 11.7,8.25 7.83,10.63zm558.75 132.42c1.53,2.53 1.51,3.73 1.25,6.66 -3.94,-1.11 -13.45,-6.18 -8.05,-9.43 2.9,-1.74 5.69,0.94 6.8,2.77zm-161.3 -111.26c7.17,-0.16 44.42,-0.35 48.9,0.85l1.08 45.19c0.31,4.3 0.78,9.35 -0.98,14.89l-121.31 0.89 -0.9 30.49c0.19,10.23 -0.04,19.19 0.33,28.84 0.36,9.25 -1.91,53.11 0.3,57.54 2.16,3.03 7.44,1.72 12.09,1.67l36.6 -0.2c12.47,0.6 43.56,-1.27 48.92,0.41l-0.77 59.84c-5.28,2.04 -18.86,1.43 -23.99,1.5 -8.42,0.1 -16.05,0.34 -23.8,0.23 -16.39,-0.25 -32.66,-0.71 -48.56,-0.29 -2.64,9.1 0.08,78.71 -0.41,92.51 -0.17,4.83 -0.58,11.34 -0.62,16.27 -0.04,5.9 0.41,9.76 0.17,15.25 6.23,1.73 10.99,0.35 15.89,0.44 14.56,0.27 98.98,-0.52 107.12,1.44 0.22,4.42 -0.15,10.45 0.98,14.66 5.8,1.17 13.99,-0.88 16.66,5.94 3.11,7.93 -5.3,0.84 5.4,15.74 -3.22,0.72 -1.55,2.1 -6.31,1.55 -1.69,-0.2 -8.32,-2.01 -9.66,-2.81 -1.29,-0.77 -3.84,-3.51 -2.24,-5.65 1.91,-2.56 3.12,0.7 6.6,-4.63l-9.62 -2.95c-2.87,10.22 0.67,32.25 -1.99,39.36 -16.35,-1.43 -9.08,1.93 -13.81,2.32 -11.9,-2.52 -13.15,-3.34 -24.72,-3.41 -29.84,-0.17 -57.97,0.87 -88.46,-0.04 -12.48,-0.37 -56.9,1.46 -66.29,-0.42l-0.47 -1.75c-0.05,-0.26 -0.13,-0.59 -0.17,-0.88 -0.04,-0.28 -0.07,-0.57 -0.1,-0.86l-0.06 -50.49c-0.19,-9.21 -0.48,-16.63 -0.39,-26.17 0.09,-9.03 0.43,-18.15 0.17,-26.8 -1.02,-34.18 0.32,-70.37 -0.29,-106.09 -0.15,-8.91 -0.76,-17.43 -0.85,-25.72l0.39 -26.95c-0.05,-9.74 0.97,-17.87 0.88,-27.61 -0.15,-14.6 -1.38,-125.99 0.45,-133.77l143.84 -0.33zm86.71 5.15c2.17,-3.69 1.17,-2.96 6.21,-3.1 2.34,-0.07 4.7,0.1 7.59,1.11 0.71,3.23 1.28,4.57 -0.65,7.58l-13.15 -5.59zm125.31 270.95c-4.73,2.14 -10.65,0.03 -12.04,-4.54 -2.89,-9.48 10.34,-3.95 16.56,-2.47 2.5,-11.06 0.31,-22.18 0.35,-33.58 0.01,-3.88 0.71,-7.36 0.6,-11.05 -1.26,-42.87 -0.34,-86.25 -0.49,-129.85 -0.16,-46.92 0.78,-94.65 -0.38,-141.24 -0.23,-9.1 0.7,-19.88 -0.21,-29.04 -0.36,-3.68 0.18,-0.95 -0.58,-2.89 -12.98,-2.94 -48.13,-1.01 -63.89,-0.44 -13.39,0.49 -28.94,-1.11 -42.77,-0.62l-61.48 0.26c-27.65,-0.46 -55.34,0.43 -83.27,-0.01 -14.23,-0.23 -27.95,-0.27 -41.9,0.19 -27.61,0.91 -55.71,-0.04 -83.54,-0.28 -12.34,-0.11 -28,-0.4 -40.84,0.27 -13.51,0.71 -28.22,-0.15 -42.01,0.01l-124.39 0.05c-13.72,-0.18 -27.49,0.79 -41.98,0.09 -18.95,-0.92 -43.95,1.19 -62.33,0.2 -28.23,-1.51 -75.93,-0.73 -104.08,-0.09 -13.59,0.31 -28.01,-0.78 -41.31,-0.12l-42.05 0.01c-14.13,0.11 -27.58,-0.84 -41.31,-0.09 -12.57,0.69 -29.31,0.42 -41.82,0.14 -27.87,-0.63 -55.75,0.34 -82.88,0.35 -26.6,0 -57.73,-1.23 -83.48,-0.16 -6.73,0.27 -13.75,0.04 -21,-0.28 -8.13,-0.37 -13.29,-0.02 -20.3,0.18 -27.43,0.76 -55.69,-0.74 -83.26,-0.04 -6.73,0.18 -14.39,0.69 -20.76,0.6 -9.8,-0.13 -61.05,-1.72 -62.45,0.94 -0.12,0.23 -0.35,0.55 -0.49,0.84 -0.15,0.3 -0.29,0.56 -0.44,0.9l-1.34 3.82c-1.32,2.98 -0.68,2.7 -3.59,2.9 -1.78,-3.32 -0.32,-4.63 -0.17,-8.88 -8.85,-1.84 -27.63,-1.01 -37.47,-0.8 -4.03,0.08 -6.11,0.65 -10.91,0.1 -10.61,-1.22 -82.31,-0.18 -92.66,0.21l-23.43 -0.32c-7.56,-0.33 -15.75,0.07 -22.81,0.38 -15.59,0.69 -31.93,-0.21 -47.68,-0.4l-198.73 -0.54c-42.25,1.96 -84.85,-0.1 -126.93,0.17l-150.58 0.42c-8.75,0.1 -26.35,-2.33 -33.69,0.82 -1.03,5.46 0.23,13.34 0.38,19.36l-0.15 51.63c0.12,4.25 2.17,4.23 4.48,6.89 -2.87,3.46 -0.73,0.01 -4.32,3.19 0.47,3.62 0.02,12.13 0.06,16.26l-0.08 80.88c-0.25,10 0.7,20.09 0.54,31.06 -0.17,11.88 -0.52,21.74 -0.45,33.14 0.05,6.55 0.85,7.67 0.41,15.74l0.15 111.57c0.4,8.85 -1.75,31.97 -0.41,48.53 1.44,17.77 0.42,120.25 0.16,144.04 -0.06,5.24 -0.03,11.09 -0.13,16.5 -0.44,23.59 -1.66,15.66 27.52,16.22 9.16,0.18 19.17,0.06 29.2,0.03l173.51 0.04c38.28,-1.24 77.36,1.05 115.46,-0.33 9.25,-0.34 20.16,0.82 29.54,0.35l29.15 -0.08c10.23,0.42 19.34,0.09 29.02,-0.14 19.31,-0.45 37.6,1.2 57.3,-0.16l72.65 -0.18c18.56,0.49 58.52,-1.02 72.33,0.13l57.43 -0.05c48.28,-0.68 96.54,1.82 145.04,-0.02 9.65,-0.37 19.15,0.79 28.96,0.58 18.65,-0.39 37.68,-0.76 57.09,-0.41l57.73 -0.63c4.95,-0.28 9.89,0.27 14.52,0 20.09,-1.19 50.75,0.27 72.48,0.37l188.59 -0.17c4.69,-0.07 10.1,0.62 14.24,0.42 19.46,-0.95 38.53,0.04 57.88,-0.43 5.11,-0.12 8.97,-0.13 14.84,0.17l29.36 0.21c4.49,0.22 8.96,-0.54 13.48,-0.27l87.53 0c28.52,-1.1 57.89,0.64 86.71,0.03 19.14,-0.41 37.52,0.06 57.51,0l57.98 -0.29c19.13,-0.6 38.74,0.53 57.8,0.19 9.59,-0.17 20.58,0.61 29.37,0.23 9.51,-0.41 17.5,-0.59 27.92,-0.36 9.34,0.22 19.67,0.27 29.26,0.05 15.96,-0.37 21.92,2.88 24.67,-7.04 -7.28,-2.46 -11.67,-3.31 -13.74,-8.8 0.58,-0.89 7,-7.32 7.91,-7.84 3.89,-2.17 8.86,0.1 11.23,3.25 7.24,9.64 9.93,11.25 6.23,19.47 7.48,1.38 16.85,0.94 24.62,0.89 21.99,-0.17 44.87,0.47 66.35,-0.48 11.44,-0.51 88.76,3.12 89.13,-1.66 0.01,-0.18 0.13,-0.6 0.13,-0.82 0,-0.2 0.05,-0.56 0.03,-0.78 -0.26,-2.41 -2.99,-3.93 -3.21,-6.53 -0.33,-4.03 -0.23,-1.01 0.91,-1.88 4.34,-1.71 7.07,8.14 7.97,11.04 8.03,1.46 32.65,0.78 40.49,0.16 1.47,-13.35 -0.22,-38.2 0.61,-53.65 0.57,-10.44 -0.13,-8.31 -1.81,-9.32 -1.53,-0.92 -7.86,0 -6.87,-4.18 0.46,-1.96 1.23,-1.5 2.74,-1.44 1.76,0.07 1.32,0.29 2.36,0.38l3 -0.02 0.54 -7.15c-3.58,-2.56 -19.48,-6.01 -0.32,-10.68l0.62 -16.12c-0.29,0.12 -0.64,0.33 -0.84,0.43l-1.6 0.84c-3.85,1.97 -7.99,1.87 -12.89,1.77 -5.53,-0.11 -11.53,-0.78 -13.9,-6.45 4.6,-0.37 10.57,0.38 15.16,-0.36 5.1,-0.82 6.11,-1.51 10.3,0.1l3.08 0.68 0.46 -8.85c-4.57,-2.72 -6.31,2.79 -10.36,-5.71 2.49,-7.26 4.08,-4.65 9.6,-2.28 1.33,-6.2 1.55,-114.63 0.09,-120.23l-4.52 2.85z"/>
  <path class="fil1" d="M1522.01 142.08c4.96,-1.8 33.21,-0.62 41.63,-0.39 17.76,0.49 27.74,8.77 31.91,21.02 3.75,11.04 2.68,67.49 2.62,83.42 -0.1,28.53 0.23,57.65 0.47,84.5l-0.42 63.97c0,8.67 2.61,21.24 -4.19,20.8 -4.43,-0.29 -5.11,-1.95 -8.79,0.5 3.68,2.61 7.69,4.3 11.14,7.18 -5.45,28.8 -37.77,23.58 -50.53,24.55 -4.45,0.34 -18.15,0.04 -22.97,-0.86 -3.07,-6.25 -0.63,-10.38 -0.54,-18.9l-0.74 -94.35c-0.08,-6.73 0.4,-12.71 0.27,-19.23 -0.9,-44.33 0.46,-89.03 -0.06,-133.84 -0.11,-9.01 -1.34,-31.3 0.2,-38.37zm-70.91 -61.36c-2.61,8.94 -0.66,126.45 -0.73,141.83 -0.07,14.34 -0.89,57.51 0.15,70.3l-0.24 153.97c0.39,8.8 0.2,4.34 -2.96,10.17 3.52,5.21 3.33,3.7 3.2,10.94l0.35 40.05c7.92,1.49 76.2,0.99 86.6,-0.08 3.32,-0.35 8.97,0.42 13.22,0.45 36.24,0.22 64.46,-2.8 87.15,-21.63 10.19,-8.45 21.26,-24.09 26.16,-40.29 3.26,-10.82 6.54,-29.69 6.34,-40.69 -0.08,-4.27 -0.8,-7.21 -0.72,-10.26 0.74,-28.45 -0.38,-48.99 -0.08,-74.56l0.13 -124.72c0.03,-88.89 -35.25,-115.61 -119.6,-116.12l-74.57 0.1c-3.14,-0.08 -8.83,-0.46 -12.04,-0.12 -3.91,0.41 -8.82,0.05 -12.36,0.66z"/>
  <path class="fil1" d="M787.47 143.65c-7.86,29.28 -3.65,80.12 -4.47,113l-0.05 144.31c-0.67,68.86 29.9,112.28 104.26,112.74 77.86,0.48 109.65,-41.07 108.75,-115.05l0.01 -64.4c-0.02,-12.53 0.8,-54.01 -0.84,-63.62 -9.54,-1.67 -30.49,0.74 -36.35,-0.14 -8.93,-1.33 -5.07,-2.59 -13.47,-0.73 -9.26,2.05 -43.74,-2.01 -48.33,1.31 -2.91,2.6 -1.18,9.94 -1.53,14.47l0.72 45.56c3.96,0.91 3.96,0.28 7.38,0.24 4.78,-0.04 5.46,1.46 7.98,1.58 1.6,0.07 7.68,-2.63 15.68,-0.88 2.09,4.85 0.81,52.53 0.84,64.08 0.06,22.6 2.77,45.11 -21.95,53.73 -14.38,5.01 -30.25,1.42 -42.62,-8.11l2.97 -1.07c2.53,-0.74 7.67,-1.04 5.16,-5.2 -2.72,-4.52 -5.52,1.6 -9.02,4.09 -8.65,-7.47 -8.17,-25.1 -8.11,-38.8 0.04,-11.95 -0.97,-80.69 0.47,-85.59 3.37,-11.45 -1.37,-0.06 -0.25,-20.43 0.41,-7.36 -0.83,-14.26 0.57,-22.07 6.91,-3.66 13.95,-0.83 18.3,-2.72 -0.07,-4.09 -5.99,-7.03 -11.16,-8.01 -3.72,3.15 -2.62,4.95 -8.12,7.02 0.65,-10.86 -0.75,-22.72 -0.2,-32.61l0.71 -67.35c2.02,-15.52 7.5,-22.63 16.93,-27.74 7.31,-3.96 20.62,-5.37 31.15,-2.89 28.55,6.72 24.06,37.45 24.97,52.79 1.7,28.62 -4.52,34.85 7.96,34.14l26.1 0.19c4.78,-0.04 30.08,-0.28 33.28,-1.32l0.08 -45.37c-2.37,-43.97 -14.85,-84.53 -67.11,-98.48 -52.9,-14.12 -123.06,-2.26 -140.69,63.33z"/>
  <path class="fil1" d="M1192.7 377.74c-0.83,15.38 1.78,43.3 -4.3,56.77 -10.35,22.93 -51.32,24.83 -64.07,2.43 -7.35,-12.92 -5.21,-33.75 -5.58,-50.69l-0.18 -27.21c0.32,-8.77 1.05,-18.91 0.55,-27.28 -1.05,-17.76 0.73,-35.79 0.08,-54.15 -0.63,-17.7 0.06,-35.67 -0.12,-53.95l0 -135.66c0.09,-10.57 1.44,-7.67 -18.27,-7.52l-52.87 0.41c-1.74,6.23 -0.45,24.49 -0.45,31.39 0.02,10.8 -0.75,21.88 -0.33,32.23 0.83,20.44 -0.67,42.14 0.15,62.48l0 62.65c0.11,20.69 -0.99,42.9 0.05,62.61l0.79 62.64c-0.01,5.96 -0.9,10.56 -0.55,16.88 3.58,64.24 36.19,102.69 106.41,102.13 57.45,-0.45 98.62,-25.74 105.04,-86.95 1.14,-10.83 1.54,-21.28 1.4,-31.81 -0.27,-20.9 -0.02,-42.09 -0.23,-62.42 -0.05,-4.78 1.29,-13.46 0.88,-16.93l-0.96 -31c0.1,-5.07 -0.36,-10.49 -0.23,-15.23 0.54,-20.99 0.42,-42.27 0.48,-63.22 0.07,-25.89 -0.71,-70.26 0.32,-94.81 0.22,-5.26 -0.62,-9.08 -0.42,-14.99 0.61,-18.49 2.8,-17.29 -16.37,-16.34 -5.57,0.27 -11.9,0.17 -17.07,0.18l-33.74 -0.11 -0.18 269.76c0.16,9.9 0.36,16.85 -0.23,27.71z"/>
  <path class="fil1" d="M638.6 85.83c0.25,0.01 0.61,0 0.87,0.02 3.9,0.19 1.69,1.37 4.79,-0.05 0.05,-6.16 -10.08,-5.67 -15.83,-5.64l-56.71 0.73c-3.94,10.91 -5.39,31.47 -7.15,43.09l-13.67 86.84c-0.44,11.52 -4.38,30.08 -6.67,42.76 -3.68,20.43 -23.08,159.91 -26.87,171.2 -2.55,-3.61 -26.6,-162.66 -27.98,-171.56 -4.31,-27.97 -8.75,-57.79 -13.55,-85.6l-13.28 -85.96c-12.26,-2.88 -25.2,1.16 -37.06,-1.76l1.37 -1.34c4.25,-4.98 -0.58,-6.62 -6.6,-4.47 -0.31,3.74 1.08,3.12 2.27,6.89 -8.6,0.23 -24.53,-1.53 -31.47,0.42 -0.8,4.64 2.89,21.94 3.75,27.56 1.48,9.59 2.76,17.37 4.34,26.62l8.97 52.98c7.94,53.52 18.41,107.4 25.81,160.39 2.39,17.09 6.94,34.64 9.16,52.79 3.55,28.91 12.53,75.25 17.38,106.64l33.94 0.93c6.55,-0.29 26.85,-0.91 33.35,0.62 0.37,3.68 1.13,11.82 6.46,9.17 3.52,-2.73 0.26,-4.43 0.46,-9.61l32.14 -0.75c2.61,-8.1 3.79,-18.7 4.71,-26.68 2.31,-19.92 9.7,-58.26 12.94,-79.68 5.34,-35.4 12.04,-69.75 17.18,-105.02 5.17,-35.37 12.76,-70.41 17.46,-105.66 0.6,-4.5 1.65,-9.24 2.82,-14.06 1.64,-6.77 0.82,-7.48 1.53,-12.54 2.71,-19.42 9.58,-63.14 13.27,-79.13l1.87 -0.14z"/>
  <path class="fil1" d="M1724.75 80.48c-1.83,7.78 -0.6,119.17 -0.45,133.77 0.09,9.74 -0.93,17.87 -0.88,27.61l-0.39 26.95c0.09,8.29 0.7,16.81 0.85,25.72 0.61,35.72 -0.73,71.91 0.29,106.09 0.26,8.65 -0.08,17.77 -0.17,26.8 -0.09,9.54 0.2,16.96 0.39,26.17l0.06 50.49c0.03,0.29 0.06,0.58 0.1,0.86 0.04,0.29 0.12,0.62 0.17,0.88l0.47 1.75c9.39,1.88 53.81,0.05 66.29,0.42 30.49,0.91 58.62,-0.13 88.46,0.04 11.57,0.07 12.82,0.89 24.72,3.41 4.73,-0.39 -2.54,-3.75 13.81,-2.32 2.66,-7.11 -0.88,-29.14 1.99,-39.36l9.62 2.95c-3.48,5.33 -4.69,2.07 -6.6,4.63 -1.6,2.14 0.95,4.88 2.24,5.65 1.34,0.8 7.97,2.61 9.66,2.81 4.76,0.55 3.09,-0.83 6.31,-1.55 -10.7,-14.9 -2.29,-7.81 -5.4,-15.74 -2.67,-6.82 -10.86,-4.77 -16.66,-5.94 -1.13,-4.21 -0.76,-10.24 -0.98,-14.66 -8.14,-1.96 -92.56,-1.17 -107.12,-1.44 -4.9,-0.09 -9.66,1.29 -15.89,-0.44 0.24,-5.49 -0.21,-9.35 -0.17,-15.25 0.04,-4.93 0.45,-11.44 0.62,-16.27 0.49,-13.8 -2.23,-83.41 0.41,-92.51 15.9,-0.42 32.17,0.04 48.56,0.29 7.75,0.11 15.38,-0.13 23.8,-0.23 5.13,-0.07 18.71,0.54 23.99,-1.5l0.77 -59.84c-5.36,-1.68 -36.45,0.19 -48.92,-0.41l-36.6 0.2c-4.65,0.05 -9.93,1.36 -12.09,-1.67 -2.21,-4.43 0.06,-48.29 -0.3,-57.54 -0.37,-9.65 -0.14,-18.61 -0.33,-28.84l0.9 -30.49 121.31 -0.89c1.76,-5.54 1.29,-10.59 0.98,-14.89l-1.08 -45.19c-4.48,-1.2 -41.73,-1.01 -48.9,-0.85l-143.84 0.33z"/>
  <path class="fil1" d="M327.39 147.41c3.99,-5.24 -2.36,-5.77 18.54,-5.5 5.26,0.07 17.49,0.37 22.14,-1.62 0.67,-5.75 -0.62,-1.71 0.02,-7.75l0.52 -22.08c-0.17,-9.22 0.88,-19.69 0.4,-28.73 -5.23,-1.29 -71.7,-0.42 -82.66,-0.5 -15.82,-0.12 -129.27,-0.88 -137.27,0.14 -2.19,10.23 1.07,45.44 -0.73,59.34 6.32,1.87 29.91,1.52 38.52,1.68 9.32,0.18 33.44,-2.25 35.7,1.66 1.74,3 -0.77,70.76 -0.04,80.88l0.6 56.06c-0.34,7.63 -0.24,15.58 -0.05,23.25 0.58,22.38 -1.2,49.44 -0.23,68.93 0.88,17.79 -0.74,130.7 0.91,135.63 4.77,1.31 60.34,1.53 70.18,-0.02 1.75,-6.46 1.25,-86.51 0.95,-98.63 -0.27,-10.49 0.07,-21.36 0.03,-31.81 -0.08,-21.78 -0.41,-41.83 -0.45,-63.82 -0.04,-21.41 -0.51,-43.05 0.18,-64.47 5.58,-2.68 5.42,1.97 8.13,-5.6 -5.58,-0.61 -2.09,1.16 -7.69,0 -1.1,-4.16 -0.32,-41.68 -0.53,-50.19 -0.21,-8.44 -0.02,-17.3 0.16,-26.07 0.47,-22.69 -1.85,-25.07 5.54,-25.74 0.24,-0.02 3.06,-0.13 3.31,-0.13l20.79 0.41 3.03 4.68z"/>
  <path class="fil1" d="M1318.74 80.37c-2.49,7.91 -0.61,93.12 -0.91,106.55l-0.13 294.59c0.13,8.84 -0.52,18.78 0.74,26.74l70.74 -0.27c0.83,-4.61 0.65,-16.13 0.77,-22.35l-0.59 -53.61c0.38,-9.06 2.33,-0.57 5.81,-7.68 -7.14,-5.6 -5.57,4.16 -5.79,-17.86l-0.12 -65.12c0.14,-7.38 0.29,-14.48 0.22,-21.69l0.1 -43.1c0.2,-10.45 -1.39,-34.06 -0.64,-42.9 1.11,-13.06 -0.22,-49.39 0.45,-65.83 0.26,-6.38 -0.07,-14.55 -0.16,-21.27l0.44 -44.31c-0.16,-8.04 0.85,-15.13 -0.92,-21.47l-70.01 -0.42z"/>
  <path class="fil0" d="M1522.01 142.08c-1.54,7.07 -0.31,29.36 -0.2,38.37 0.52,44.81 -0.84,89.51 0.06,133.84 0.13,6.52 -0.35,12.5 -0.27,19.23l0.74 94.35c-0.09,8.52 -2.53,12.65 0.54,18.9 4.82,0.9 18.52,1.2 22.97,0.86 12.76,-0.97 45.08,4.25 50.53,-24.55 -3.45,-2.88 -7.46,-4.57 -11.14,-7.18 3.68,-2.45 4.36,-0.79 8.79,-0.5 6.8,0.44 4.19,-12.13 4.19,-20.8l0.42 -63.97c-0.24,-26.85 -0.57,-55.97 -0.47,-84.5 0.06,-15.93 1.13,-72.38 -2.62,-83.42 -4.17,-12.25 -14.15,-20.53 -31.91,-21.02 -8.42,-0.23 -36.67,-1.41 -41.63,0.39z"/>
  <path class="fil1" d="M1898.69 417.8c3.16,3.53 5.75,4.27 11.04,5.7 9.17,2.47 5.12,2.35 7.9,9.44 3.25,0.79 6.03,0.28 8.72,-1.22 -0.03,-5.34 -7.96,-12.33 -11.76,-15.76 -2,-1.8 -5.36,-5.43 -8.4,-5.09 -2.78,0.3 -6.42,3.8 -7.5,6.93z"/>
  <path class="fil1" d="M2006.41 371.72c-2.6,7.83 9.03,10.76 19.98,13.87 1.27,-5.9 1.53,-10.76 -4.18,-12.79 -4.17,-1.48 -12.46,-1.58 -15.8,-1.08z"/>
  <path class="fil1" d="M2049.64 449.38c7.35,2.45 8.08,-1.05 14.57,4.46 2.61,2.22 -0.13,1.2 4.06,2.85l1.52 -2.09c0.14,-0.23 0.28,-0.54 0.43,-0.79 1.83,-3.07 -0.72,-1.05 2.34,-3.22 4.19,-2.95 3.14,1.7 5.18,-4.76 -4.59,-3.47 -8.73,-0.93 -14.43,-0.7 -6.82,0.28 -11.08,-2.13 -13.67,4.25z"/>
  <path class="fil1" d="M2002.44 466.19c-1.92,-4.43 -0.77,-0.63 -3.16,-3.07 -4.62,-4.72 2.68,-8.18 -11.24,-10.23 -1.39,2.13 -2.79,4.4 -3.66,7.45 -3.44,12.01 17.17,6.4 18.06,5.85z"/>
  <path class="fil1" d="M1945.08 557.81c-1.27,6.94 14.99,17.41 15.35,17.56l3.96 -3.79c-3.48,-4.78 -12.29,-17.82 -19.31,-13.77z"/>
  <path class="fil1" d="M2013.13 515.9c6.16,1.66 5.96,1.05 9.31,-2.04 3.79,-3.51 3.96,-1.96 7.52,-4.29 -2.88,-3.58 -6.56,-8.48 -12.54,-10.32 -2.02,15.78 -1.5,5.79 -4.29,16.65z"/>
  <path class="fil1" d="M952.66 11.28c-3.51,4.57 0.72,7.3 3.77,10.55 4.11,4.38 7.15,7.43 12.03,6.2 0.08,-0.15 0.26,-0.59 0.21,-0.48 -0.05,0.12 2.25,-0.59 -9.43,-13.44l-3.89 -2.93c-4.93,-1.21 -0.23,-0.37 -2.69,0.1z"/>
  <path class="fil1" d="M981.75 251.02c-0.23,-0.26 0.8,-2.69 -6.57,-2.19 -12.05,0.82 -22.29,-6.94 -19.31,2.24 1.09,3.34 9.38,2.66 12.81,2.76 2.7,0.08 4.01,-0.04 6.84,-0.14 4.25,-0.14 4.02,0.3 6.23,-2.67z"/>
  <path class="fil1" d="M724.24 32.48c3.79,1 19.55,4.25 20.95,-0.19 0.92,-2.9 -0.35,-4.58 -1.43,-6.64 -5.06,-1.39 -6.72,-0.18 -10.15,1.39 -5.64,2.58 -6.27,1.99 -9.37,5.44z"/>
  <path class="fil1" d="M2015.52 409.81c1.99,3.61 2.88,2.16 6.24,7.63 2.16,3.51 2.23,5.44 6.15,7.91 1.55,-4.44 1.63,-10.09 -0.42,-12.93 -2.45,-3.38 -9.05,-4 -11.97,-2.61z"/>
  <path class="fil1" d="M789.45 491.77c0.68,5.28 2.97,13.08 8.4,15.82 1.8,-5.09 2.77,-7.46 2.45,-12.06 -3.59,-2.7 -5.65,-2.78 -10.85,-3.76z"/>
  <path class="fil1" d="M1949.38 417.05c-0.99,4.5 0.64,5.08 3.68,8.45 2.98,3.29 3.92,4.33 9.13,4.96 1.91,-8.09 -9.31,-15.38 -12.81,-13.41z"/>
  <path class="fil1" d="M2046.64 227.12c4.39,1.19 10.18,1.21 14.53,0.51 4.87,-0.79 1.97,0.7 3.94,-2.37 -0.74,-0.79 -0.39,-0.81 -2.03,-1.67 -6.73,-3.54 -13.8,-4.93 -16.44,3.53z"/>
  <path class="fil1" d="M2059.47 517.29c16.24,3.89 11.18,-8.82 -0.85,-3.23 -3.96,1.84 -9.57,0.26 -8.58,4.59 1.42,6.23 8.24,-0.3 9.43,-1.36z"/>
  <path class="fil1" d="M714.23 361.32c-1.06,8.97 11.13,9.7 14.28,-0.95 -4.3,-1.07 -11.26,-0.5 -14.28,0.95z"/>
  <path class="fil1" d="M215.36 483.84c2.69,-4.13 0.64,-3.11 2.04,-5.9 1.86,-3.68 2.55,0.5 1.95,-5.99 -3.6,-2.33 -7.51,-3 -8.52,2.25 -1.95,10.15 3.76,9.35 4.53,9.64z"/>
  <path class="fil1" d="M1921.24 332.8c0.17,-0.21 0.52,-0.8 0.49,-0.66 -0.05,0.35 3.57,-9.26 0.88,-11.88 -7.33,-7.13 -8.67,10.49 -3.88,12.56 4.51,1.95 0.5,0.33 2.51,-0.02z"/>
  <path class="fil1" d="M2034.75 547.28c4.85,4.98 17.73,6.81 11.14,-3.85 -5.59,-1.72 -9.96,-1.71 -11.14,3.85z"/>
  <path class="fil1" d="M657.89 501.61c1.33,-0.24 8.4,-4.35 9.44,-8.13 -2.05,-1.71 -4.81,-2.79 -8.33,-3.33 -3.16,3.38 -6.01,7.2 -1.11,11.46z"/>
  <path class="fil1" d="M1676.04 227.78c-1.74,5.3 -0.91,7.25 2.82,9.68 3.5,-0.83 5.63,-1.47 7.05,-5.91 -1.92,-4.48 -4.94,-6.08 -9.87,-3.77z"/>
  <path class="fil1" d="M1463.31 48.36c-0.12,0.07 -4.48,0.24 0.08,7.22 1.14,1.75 4.64,5.32 7.75,3.41 3.87,-2.38 -3.8,-12.81 -7.83,-10.63z"/>
  <path class="fil1" d="M1955.3 85.3l13.15 5.59c1.93,-3.01 1.36,-4.35 0.65,-7.58 -2.89,-1.01 -5.25,-1.18 -7.59,-1.11 -5.04,0.14 -4.04,-0.59 -6.21,3.1z"/>
  <path class="fil1" d="M1991.75 304.29c3.21,1.39 17.78,6.41 13.57,-1.68 -1.12,-2.15 -5.15,-3.01 -7.91,-2.87 -3.53,0.17 -4.75,1.15 -5.66,4.55z"/>
  <path class="fil1" d="M200.96 477.11c2.63,-6.49 6.27,-10.96 0.9,-14.62 -7.73,2.42 -5.55,11.27 -0.9,14.62z"/>
  <path class="fil1" d="M1988.66 286.37c-0.77,6.06 4.33,6.84 9.7,6.26l2.73 -6.36c-4.77,-1.42 -9.62,-1.9 -12.43,0.1z"/>
  <path class="fil1" d="M637.51 105.03c6.65,0.29 -0.17,0.13 10.86,-4.09 3.63,-1.39 1.73,-0.53 3.58,-2.66l-8.08 -3.76c-3.32,3.03 -5.04,5.84 -6.36,10.51z"/>
  <path class="fil1" d="M2017.37 483.41c0.8,0.85 -1.38,0.5 2.95,2.07 0.5,0.19 4.51,0.9 5.05,0.91 3.04,0.04 6,-1.15 4.13,-4.68 -1.21,-2.3 -5.52,-2.78 -8.07,-2.37 -5.63,0.91 -4.06,4.01 -4.06,4.07z"/>
  <path class="fil1" d="M588.87 472.5c7.58,-10.23 0.21,-12.57 -9.2,-12.7 0.68,1.15 0.23,0.75 1.45,2.03l1.25 1.05c4.88,4.47 2.69,3.65 5.3,8.21l1.2 1.41z"/>
  <path class="fil1" d="M1447.8 578.42c-8.98,-1.3 -14.36,5.03 -13.3,7.02 1.24,2.33 9.88,2.51 13.3,-7.02z"/>
  <path class="fil1" d="M1973.52 371.42l4.34 1.33c12.16,-9.53 -7.98,-17.44 -4.34,-1.33z"/>
  <path class="fil1" d="M586.28 518.81c20.16,8.15 6.24,-12.98 -1.35,-3.98l1.35 3.98z"/>
  <path class="fil1" d="M1969.83 444.13c-9.23,-2.42 -8.9,4.06 -5.9,6.84 6.59,6.12 6.62,-3.6 5.9,-6.84z"/>
  <path class="fil1" d="M2031.14 198.07c0.26,-2.93 0.28,-4.13 -1.25,-6.66 -1.11,-1.83 -3.9,-4.51 -6.8,-2.77 -5.4,3.25 4.11,8.32 8.05,9.43z"/>
  <path class="fil1" d="M323.57 505.89c11.7,3 15.06,-6.54 7.94,-6.72 -0.24,0 -0.56,0.08 -0.79,0.12 -0.63,0.1 -1.95,0.96 -2.74,1.43 -2.7,1.64 -2.95,1.43 -4.41,5.17z"/>
  <path class="fil1" d="M1985.16 513.17c0.77,-3.93 -4.38,-11.43 -8.29,-12.77 -1.65,5.02 2.13,11.73 8.29,12.77z"/>
  <path class="fil1" d="M950.8 68.82c3.61,-0.95 2.94,-0.93 5.28,-4.05 -1.72,-4.06 -2.24,-4.13 -8.26,-5.42 -0.8,4.39 -0.11,7.05 2.98,9.47z"/>
  <path class="fil1" d="M1988.85 230.15c0.79,-0.91 1.01,2.16 1.31,-2.05 0.49,-6.94 -13.5,-6.26 -8.1,0.38 0.95,1.17 1.35,1.47 3.14,1.92 4.29,1.09 2.99,-0.07 3.65,-0.25z"/>
  <path class="fil1" d="M91.43 47.45c6.29,2.68 10.72,1.64 12.3,-4.61 -4.73,-1.57 -10.77,0.66 -12.3,4.61z"/>
  <path class="fil1" d="M1160.62 147.7l1.45 4.63 5.23 1.51 3.35 -2.31 -2.51 -4.56c-4.3,-1.27 -5,-1.33 -7.52,0.73z"/>
  <path class="fil1" d="M2000.79 403.77c3.83,4.34 10.5,2.81 9.62,-1.21 -0.47,-2.12 -2.37,-2.83 -4.93,-2.88 -3.23,-0.07 -3.85,0.8 -4.69,4.09z"/>
  <path class="fil1" d="M589.72 479.12c-2.37,-2.64 -4.23,-2.58 -6.77,-2.17 0.01,0.04 1.53,8.84 6.63,8.96 0.07,-0.08 4.14,-2.31 0.14,-6.79z"/>
  <path class="fil1" d="M2022.96 280.02c-6.95,1.24 -4.58,7.52 1.15,6.73 4.33,-0.6 4.61,-7.76 -1.15,-6.73z"/>
  <path class="fil1" d="M342.48 168.29c5.43,1.18 8.7,0.19 10.01,-5.02 -5.28,-3.89 -7.68,-0.16 -10.01,5.02z"/>
  <path class="fil1" d="M1988.7 405.98l1.29 3.98c4.72,1.37 6.61,1.37 7.61,-3.49 -3.11,-2.93 -6.28,-3.32 -8.9,-0.49z"/>
 </g>
</svg>
